<?xml version="1.0" standalone="no"?>
<!DOCTYPE svg PUBLIC "-//W3C//DTD SVG 1.1//EN" "http://www.w3.org/Graphics/SVG/1.1/DTD/svg11.dtd" >
<svg xmlns="http://www.w3.org/2000/svg" xmlns:xlink="http://www.w3.org/1999/xlink" version="1.1">
<metadata>
Created by FontForge 20170925 at Sat May 13 06:38:35 2017
 By Jimmy Wärting
Copyright (c) 2017 bySuandana I Pande Made. All rights reserved.
</metadata>
<defs>
<font id="SugarCandy" horiz-adv-x="399" >
  <font-face 
    font-family="Sugar Candy"
    font-weight="400"
    font-stretch="normal"
    units-per-em="1000"
    panose-1="0 0 0 0 0 0 0 0 0 0"
    ascent="750"
    descent="-250"
    x-height="312"
    cap-height="1008.5"
    bbox="-695.1 -1678.23 2049.73 1181.53"
    underline-thickness="50"
    underline-position="-100"
    unicode-range="U+000D-007D"
  />
<missing-glyph 
 />
    <glyph glyph-name=".notdef" 
 />
    <glyph glyph-name="NULL" horiz-adv-x="0" 
 />
    <glyph glyph-name="NULL" horiz-adv-x="0" 
 />
    <glyph glyph-name="nonmarkingreturn" unicode="&#xd;" 
 />
    <glyph glyph-name="space" unicode=" " 
 />
    <glyph glyph-name="e" unicode="e" horiz-adv-x="240" 
d="M236 267q-9 -26 -34.5 -46t-47.5 -35q-26 -17 -52.5 -30.5t-55.5 -24.5v-2q2 -25 8.5 -41.5t26.5 -34.5q12 -11 25 -13.5t25 1t24 11t23 16.5q9 7 18.5 5.5t15.5 -7.5t7 -15t-8 -16q-14 -11 -30 -21.5t-33.5 -16.5t-35.5 -6t-36 9q-30 16 -48 46t-24 63q-6 38 -2.5 75
t17 69.5t38.5 59.5t62 44q0 1 1 1q21 12 45 8t42.5 -17.5t27.5 -35.5t1 -46zM50 182q51 21 96 55q5 4 14.5 11.5t18 16.5t13 18.5t-1.5 17.5q-9 13 -25 17t-30 -6q-3 -2 -9 -4q-32 -20 -50.5 -54t-25.5 -72z" />
    <glyph glyph-name="f" unicode="f" horiz-adv-x="320" 
d="M337 377q11 -3 14.5 -11t1 -16.5t-10 -14t-17.5 -2.5q-23 5 -47 -1t-46.5 -18.5t-42.5 -28.5t-35 -31q-17 -17 -32 -33.5t-30 -33.5q-2 -9 -3.5 -18t-3.5 -18q22 -17 39.5 -50.5t31 -70.5t22.5 -70.5t13 -50.5q11 -46 16.5 -91.5t-1.5 -93.5q-2 -14 -5.5 -30.5t-10.5 -31
t-18 -25t-27 -13.5q-2 -1 -8 -1q-35 1 -58 19t-36.5 47t-19 65t-7 72.5t0 70t2.5 56.5q1 38 4.5 76t9.5 76q-2 -1 -2.5 -2t-2.5 -2q-7 -8 -15 -7.5t-14 5.5q-7 5 -10 12.5t3 16.5q12 18 27 39t32 43q20 103 47.5 203.5t51.5 201.5q3 11 11 14.5t16 1t14 -9.5t3 -18
q-18 -75 -35.5 -150t-37.5 -150q-4 -11 -5 -19q24 24 50 44t54 33t57.5 18t59.5 -2zM111 20q-5 14 -14.5 37.5t-20.5 40.5q-5 -29 -7.5 -56.5t-3.5 -56.5q-1 -45 -2.5 -90.5t3.5 -90.5q1 -17 4 -39.5t10 -43.5t20 -36t35 -16q10 3 15.5 15t8.5 26t4 28.5t1 22.5
q1 32 -2.5 61.5t-11.5 60.5q-8 35 -17 69.5t-22 67.5z" />
    <glyph glyph-name="g" unicode="g" horiz-adv-x="389" 
d="M409 -117q4 -74 -27.5 -135t-101.5 -93q-68 -32 -143 -39t-149 -1q-43 4 -89 10t-91 17.5t-87.5 29.5t-76.5 46q-6 5 -8 13q-5 6 -6 15q-3 37 20.5 65t58 46.5t72.5 28.5t66 13q103 10 192.5 -16t177.5 -79q10 -6 11 -15.5t-3.5 -17t-13 -10.5t-18.5 3q-71 42 -144 68
t-158 23q-36 -2 -74.5 -7t-70.5 -23q-9 -6 -21 -13.5t-22.5 -17t-17.5 -20.5t-8 -23q34 -27 77.5 -41t85.5 -24t83.5 -16.5t84.5 -8.5q31 -2 64.5 -2t67 3.5t65 12.5t60.5 24q39 21 60 49t29.5 62t6.5 72t-9 77q-8 45 -18.5 90.5t-21.5 90.5q-7 -5 -13 -10t-13 -10
q-22 -17 -44 -33t-45 -30q-14 -9 -35 -20t-42.5 -16.5t-41.5 -1t-32 25.5q-15 25 -16 57t9 63t27.5 58t40.5 44q37 27 84 35.5t92 -4.5q-1 2 -1 6q-1 11 5.5 16.5t15.5 5.5t17 -5.5t9 -16.5q1 -8 1.5 -15.5t2.5 -15.5q5 -7 3 -19q3 -24 9 -47q14 -2 16.5 -16.5t-7.5 -23.5
q17 -71 34 -141t21 -143zM245 147q12 9 26 21.5t29 23.5q-2 14 -5 27t-5 27q-20 9 -43 12t-46 -0.5t-44 -13.5t-36 -26q-22 -24 -33 -55.5t-9 -63.5q1 -14 5 -26t22 -8q38 9 72.5 34t66.5 48z" />
    <glyph glyph-name="h" unicode="h" horiz-adv-x="793" 
d="M806 -3q7 -8 6 -17.5t-7.5 -15.5t-15.5 -7t-16 7q-21 23 -34.5 49.5t-16.5 58.5q-1 19 1 42t1.5 46t-6 43.5t-22.5 34.5q-23 19 -48.5 20.5t-50 -7.5t-47.5 -25t-42 -31q-42 -33 -84.5 -65.5t-90.5 -57.5q-29 -15 -62 -26t-65 -5q-7 -2 -12 1q-5 2 -9 4t-9 4v1l-2 1
q-37 21 -59 60.5t-35 85.5t-19.5 93t-12.5 84q-17 99 -31 196.5t-29 196.5q-2 11 4 19t14.5 10t16.5 -1.5t10 -14.5q14 -93 27.5 -184.5t28.5 -184.5q7 -41 13.5 -81t15.5 -80q4 -19 10 -42t14.5 -45t21.5 -41t31 -30q2 -1 2.5 -1t2.5 -1q22 -11 48.5 -5.5t52.5 19t50 30.5
t40 29q38 27 73.5 59.5t76.5 53.5q24 12 50 19.5t51.5 7t49.5 -9.5t44 -30q18 -19 25.5 -40.5t9 -44.5t1 -47.5t1 -48t8.5 -45.5t25 -41z" />
    <glyph glyph-name="i" unicode="i" horiz-adv-x="175" 
d="M115 347q15 -37 21.5 -76t8 -79t0.5 -80t0 -79q0 -11 -7 -17t-15.5 -6t-16 6t-7.5 17q-1 37 -0.5 75.5t-1 77t-7 75.5t-20.5 73q-4 10 1 17.5t13.5 9.5t17.5 -1t13 -13zM152 493q0 -21 -12 -38.5t-32 -24.5q-12 -5 -25 -3t-24.5 8t-21 15.5t-14.5 20.5q-6 14 -5.5 29
t6 29t15.5 26t23 19q14 8 25 -1.5t10 -22.5q21 -5 37.5 -18.5t17.5 -38.5zM67 512l-1 -1z" />
    <glyph glyph-name="j" unicode="j" horiz-adv-x="314" 
d="M322 104q11 1 16.5 -5.5t5.5 -15.5t-5.5 -17t-16.5 -9q-17 -2 -33 -4t-33 -5q9 -72 13 -144t1 -144q-2 -64 -8.5 -129t-27.5 -127q-5 -13 -11 -29.5t-15.5 -31t-22 -24t-30.5 -8.5h-3q-2 0 -3 1q-25 5 -43.5 25t-32 45.5t-22.5 53t-15 48.5q-21 73 -29.5 150t-5.5 153
q2 64 27.5 104.5t85.5 66.5q21 9 43.5 15.5t45.5 11.5q-20 132 -55 257q-3 11 2.5 18t14 9.5t17 -1t11.5 -14.5q36 -127 57 -260q18 3 36 5.5t36 4.5zM224 -152q-2 48 -5.5 95.5t-8.5 95.5q-15 -3 -29 -7t-28 -9q-21 -8 -43 -17.5t-37 -26.5q-19 -21 -22.5 -50t-2.5 -56
q0 -64 5 -127.5t22 -126.5q4 -16 10.5 -41t16.5 -49.5t23.5 -44.5t32.5 -26q12 2 21 22.5t15.5 46t10.5 49t6 31.5q9 60 12 120.5t1 120.5zM130 444q-29 4 -43 24.5t-9 48.5q4 23 22 39.5t42 8.5l6 -3q18 -5 28 -22t8 -36q0 -11 -4 -22t-10.5 -20t-16.5 -14.5t-23 -3.5z
M136 517v-1v1z" />
    <glyph glyph-name="k" unicode="k" horiz-adv-x="353" 
d="M370 54q10 -5 11.5 -14t-3 -16.5t-13 -11t-18.5 1.5q-35 17 -78 37.5t-78 50.5q-20 -29 -40.5 -57.5t-43.5 -55.5q-1 -4 -6 -7q-7 -8 -15 -7.5t-14 5.5t-9 13q-17 48 -27.5 98t-16.5 101t-9.5 102.5t-5.5 101.5q-2 52 -3 94.5t-0.5 83t1.5 82.5t3 95q1 11 8.5 16.5
t16 5.5t15.5 -5.5t7 -16.5q-2 -52 -3.5 -94.5t-1.5 -83t1 -83t3 -94.5q4 -88 12 -176t31 -173q17 22 33 44.5t31 45.5q-11 14 -17 30t-7 35q-2 20 4 48t19 51t33 35.5t46 2.5q7 0 12 -6q6 -3 8 -9q12 -18 12.5 -38t-4.5 -41t-15 -41t-19 -37q-3 -6 -6.5 -12t-6.5 -12v-1
q33 -30 73.5 -49t79.5 -39zM180 221q0 -22 7 -37q8 13 16.5 29t14 31t6.5 29t-5 23q-9 2 -16 -7.5t-12 -23t-8 -26.5t-3 -18z" />
    <glyph glyph-name="l" unicode="l" horiz-adv-x="188" 
d="M181 182q2 11 10.5 14.5t16.5 1.5t14 -9.5t4 -18.5q-4 -18 -13.5 -47t-23.5 -56t-33 -47t-43 -20t-37 19.5t-20 46.5t-9.5 54.5t-3.5 43.5q-9 82 -14 153.5t-9.5 140t-9.5 139.5t-13 154q-1 11 5.5 16.5t15.5 5.5t17 -5.5t9 -16.5q7 -72 12 -132t9 -117.5t8 -118
t9 -132.5q3 -46 7 -93.5t18 -91.5q4 -11 4.5 -15.5t8.5 3.5q16 19 28 43q11 20 19.5 41t13.5 44z" />
    <glyph glyph-name="m" unicode="m" horiz-adv-x="602" 
d="M696 -101q6 -9 2.5 -17.5t-11 -13t-16.5 -3.5t-15 11q-43 67 -81.5 137t-70.5 142q-12 28 -23 55t-24 54q-2 4 -5.5 14t-8 20.5t-10 20.5t-10.5 15q-12 -7 -19.5 -24.5t-12 -38t-7 -40t-3.5 -29.5q-7 -45 -10.5 -89t-6.5 -89q2 -10 -5 -18q-4 -7 -14 -9q-2 -1 -6 -1
q-13 0 -19 10q-18 16 -33 36t-27.5 41.5t-23.5 44t-21 44.5q-11 23 -21.5 47t-22.5 47q-2 4 -5 10.5t-7 13.5t-8.5 13t-9.5 9q-8 -3 -14 -20.5t-10.5 -39t-7 -40.5t-3.5 -25q-5 -38 -7 -77t0 -78q4 -10 -1 -18q-3 -7 -9.5 -9.5t-13.5 -1.5q-12 0 -19 10q-24 33 -36.5 67
t-16.5 70t-2.5 73t4.5 76q1 11 8.5 17t16 6t15.5 -5.5t6 -17.5q-3 -44 -4.5 -84.5t6.5 -79.5q4 61 18 120q3 14 8 32t13.5 33.5t21 27t30.5 11.5q6 0 8 -1q17 -3 30 -18t23.5 -33.5t18 -38t13.5 -32.5q18 -40 37 -83t47 -79q3 45 7.5 88t12.5 86q4 17 8.5 37.5t12.5 40
t20.5 34.5t31.5 22q6 2 9 2q6 0 11 -3q17 -7 27 -23t18 -31q14 -29 26.5 -58.5t25.5 -58.5q35 -81 76 -158.5t89 -152.5z" />
    <glyph glyph-name="n" unicode="n" horiz-adv-x="373" 
d="M372 -38q1 -11 -5.5 -17t-15.5 -6t-17 6t-9 17q-5 53 -10.5 105t-7.5 106q0 15 1 33.5t0.5 37t-3.5 36t-11 31.5q-13 21 -30.5 12t-34.5 -30.5t-30.5 -45.5t-18.5 -33q-23 -46 -41.5 -93t-38.5 -95q-3 -6 -6 -9q-3 -8 -9.5 -12t-14 -4.5t-13.5 3.5t-8 13q-14 68 -27 134
t-21 135q-1 11 5.5 16.5t15.5 5.5t16.5 -5.5t9.5 -16.5q5 -48 13.5 -93.5t18.5 -91.5q20 50 41.5 98.5t51.5 93.5q10 15 22.5 31.5t27 29t32 18.5t38.5 0q21 -5 33 -22t18 -38.5t7.5 -44t1.5 -39.5q0 -68 6 -134t13 -132z" />
    <glyph glyph-name="o" unicode="o" horiz-adv-x="266" 
d="M137 358q56 3 86 -19.5t38.5 -59t-1 -80.5t-32.5 -84.5t-56 -71t-71 -40.5q-43 -11 -66 8.5t-30.5 55.5t-1 82t23.5 89t42.5 76t56.5 43q4 1 11 1zM96 51q22 9 45.5 32.5t42 53t29 61.5t7.5 58t-22.5 41.5t-61.5 13.5q-20 -7 -34.5 -24.5t-25 -39t-17 -44.5t-9.5 -41
q-2 -12 -4 -34.5t1.5 -43t14 -32t34.5 -1.5z" />
    <glyph glyph-name="p" unicode="p" horiz-adv-x="290" 
d="M136 -158q22 -88 45 -175t56 -172q4 -11 -1 -18t-13.5 -9t-17.5 1t-13 14q-35 89 -59 182t-47 186q-9 35 -17.5 71t-16.5 73q-16 -11 -30.5 -20t-28.5 -17q-10 -6 -18.5 -2.5t-13 11t-3 17t10.5 15.5q19 11 37 22.5t36 23.5q-10 60 -13.5 119.5t4.5 116.5q2 11 10 15
t16.5 1.5t14.5 -10t4 -18.5q-1 -7 -1.5 -14t-1.5 -14q22 32 49 63.5t55.5 48.5t55.5 12t48 -46q5 -5 5 -12q6 -46 -8.5 -86.5t-42.5 -75.5t-65.5 -66t-76.5 -57q1 -3 1.5 -6.5t1.5 -6.5q8 -42 17.5 -83.5t20.5 -83.5zM76 152q2 -20 4.5 -39t5.5 -38q38 27 70 56q16 15 33 33
t30 39t20 44t4 47q-5 12 -14 21t-24 1q-14 -8 -26 -19t-23 -23q-24 -28 -43.5 -59t-36.5 -63z" />
    <glyph glyph-name="q" unicode="q" horiz-adv-x="315" 
d="M340 387q10 4 19 0t13.5 -11.5t3 -16t-11.5 -12.5q-26 -11 -50.5 -22.5t-48.5 -23.5q20 -109 20 -217.5t-9 -218.5q-8 -88 -17.5 -176.5t-30.5 -174.5q-3 -11 -11 -14.5t-16.5 -1.5t-14.5 9.5t-3 18.5q21 87 30.5 175.5t16.5 176.5q5 57 7.5 112t0.5 111q-26 -28 -60 -52
t-67 -33t-61.5 2.5t-44.5 55.5q-2 4 -2 6q-2 6 -2 8q-3 26 4 49.5t21 44.5t32 39t38 33q28 21 57.5 39t61.5 35q3 9 12.5 13.5t17.5 2.5q46 22 95 43zM234 171q-2 27 -5 54t-8 53q-17 -9 -33 -18.5t-32 -20.5q-17 -11 -37.5 -26.5t-38 -34t-27.5 -40t-5 -45.5
q7 -25 22 -31.5t33.5 -1.5t38.5 18.5t38 30.5t32.5 34t21.5 28z" />
    <glyph glyph-name="r" unicode="r" horiz-adv-x="353" 
d="M341 311q10 -6 11 -15t-3 -16.5t-12.5 -11.5t-18.5 2q-16 9 -35 22.5t-40 26t-41.5 20.5t-39.5 7q-17 -2 -24.5 -13.5t-9 -26.5t0 -31.5l2.5 -27.5q5 -56 18 -109.5t28 -107.5q4 -17 -9 -24.5t-25 -2.5q-8 2 -12 7q-51 49 -85.5 113.5t-44.5 134.5q-2 11 4.5 19t15 10
t16 -1.5t9.5 -14.5q12 -86 60 -158q-5 20 -9 40t-7 40q-5 30 -9 63.5t3 63.5q8 35 25 51t39.5 18.5t49 -6t52.5 -21.5t49.5 -27t41.5 -24z" />
    <glyph glyph-name="s" unicode="s" horiz-adv-x="242" 
d="M243 206q8 6 15.5 3t11.5 -9.5t3 -15t-9 -13.5q-22 -14 -42.5 -28t-40.5 -30q5 -10 10 -25q14 -43 3.5 -75.5t-38.5 -64.5q-1 -2 -4 -5q-2 -2 -6 -4q-20 -15 -41.5 -17.5t-37 6.5t-22.5 28t2 47q11 35 32.5 64t47.5 54q-3 5 -6.5 8.5t-7.5 8.5q-19 20 -39.5 39.5
t-37.5 41.5q-15 18 -24.5 40t-11 45.5t6.5 45.5t28 39q16 14 37 21t42 6t40 -10.5t32 -28.5q12 -18 16 -39t-0.5 -40.5t-18 -35t-36.5 -21.5q-10 -3 -16.5 2t-8.5 12.5t1 15t13 10.5q25 7 27.5 27t-10 38.5t-34.5 27.5t-46 -7q-23 -16 -28.5 -35.5t0.5 -40t19 -39.5t28 -34
q17 -17 34.5 -34t32.5 -37q20 17 41.5 31t42.5 28zM83 -27q0 -10 5.5 -12t12.5 0t13.5 5.5t8.5 5.5q18 20 29.5 41.5t2.5 50.5q-3 11 -7 20q-5 -5 -8.5 -9.5t-8.5 -9.5q-12 -14 -24 -31t-19 -36q-2 -6 -4 -12.5t-1 -12.5z" />
    <glyph glyph-name="t" unicode="t" horiz-adv-x="299" 
d="M502 448q11 -1 16.5 -8.5t5.5 -16.5t-5.5 -15.5t-16.5 -5.5q-51 5 -102 8.5t-103 1.5q-37 -2 -78 -5.5t-78 -17.5q11 -106 15.5 -211.5t9.5 -209.5q0 -11 -7 -17t-15.5 -6t-16 6t-8.5 17q-2 42 -3.5 84.5t-3.5 85.5l-1 2q-8 20 -22 42.5t-27 46.5t-23.5 48.5t-11.5 48
t9.5 44.5t38.5 38q5 3 8.5 5.5t7.5 4.5q-6 55 -10.5 96.5t-11 80t-16.5 78.5t-28 92q-4 10 1.5 17.5t13.5 9.5t17 -1.5t13 -13.5q17 -51 27.5 -90t17 -76.5t11 -78.5t10.5 -95q43 15 89.5 20t94 4.5t94 -5t88.5 -8.5zM105 253l-4 56l-4 56q-13 -11 -17.5 -23t-2.5 -25.5
t8.5 -28t16.5 -29.5z" />
    <glyph glyph-name="u" unicode="u" horiz-adv-x="279" 
d="M302 164q7 -9 6 -18.5t-7.5 -15.5t-15.5 -7t-16 8q-8 8 -13.5 16.5t-10.5 17.5q-5 -33 -15 -66q-6 -19 -15.5 -41t-24 -41t-33 -31.5t-42.5 -13.5q-24 0 -42.5 10t-32 27t-22 38t-12.5 42q-11 62 -1.5 121.5t26.5 118.5q3 11 11.5 14.5t17 1t14 -9.5t2.5 -18
q-12 -43 -22 -88t-8 -90q1 -11 4.5 -27.5t9.5 -33.5t14.5 -32t19.5 -23t24 -5.5t29 20.5q25 30 37 67t16.5 77t4 80.5t-0.5 77.5q0 11 6.5 16.5t15 6t15.5 -4t9 -13.5q4 -6 4 -11q1 -21 3.5 -44t7 -45.5t13.5 -43t24 -37.5z" />
    <glyph glyph-name="v" unicode="v" horiz-adv-x="371" 
d="M324 337q3 11 11 14.5t16.5 1t14.5 -10t4 -18.5q-12 -52 -25 -103t-30 -102q-3 -9 -6.5 -22.5t-9 -27.5t-12 -27.5t-15.5 -23.5q-4 -7 -10 -11q-2 0 -6 -2q-10 -4 -16 -4q-5 -1 -8 0t-6 3q-15 4 -29.5 16.5t-26.5 27.5t-21.5 31t-16.5 28q-35 57 -66.5 117t-62.5 120
q-5 10 -1 19t11.5 13.5t16.5 3t14 -11.5q24 -48 49.5 -95.5t51.5 -95.5q11 -20 23 -40.5t26 -39.5q2 -3 7.5 -10t12 -15t13 -15t9.5 -9q-2 2 2.5 7t6.5 10q5 9 8.5 19t7.5 20q15 43 27 87q21 71 36 146z" />
    <glyph glyph-name="w" unicode="w" horiz-adv-x="549" 
d="M566 222q10 -4 13.5 -13t1.5 -17.5t-9.5 -13.5t-17.5 -1q-35 14 -59 41q0 -28 -5 -54t-16.5 -46t-31 -31.5t-48.5 -11.5q-42 1 -67.5 31t-41.5 72q-9 -39 -27 -73q-10 -20 -22.5 -38.5t-28 -33.5t-35 -24t-43.5 -9q-23 0 -41.5 11.5t-32.5 28.5t-24 37.5t-15 40.5
q-17 60 -16 122t16 122q3 11 11.5 14.5t17 1t14 -9.5t2.5 -18q-11 -48 -14 -98.5t8 -98.5q3 -14 9 -33t15.5 -36t23.5 -28t33 -9q18 2 33 13.5t27 28t20 35t13 33.5q14 42 19.5 85.5t-0.5 88.5q0 3 -1 4q-1 10 3 16q3 7 9.5 11t13.5 4t12.5 -4t6.5 -13q1 -2 1 -5
q6 -31 12.5 -62t17.5 -60q3 -11 8.5 -27t13 -31.5t17.5 -27.5t24 -14q23 -4 36.5 8t20 33.5t6.5 48.5t-2.5 53t-6.5 47.5t-6 32.5q-3 11 2.5 18.5t14.5 9.5q8 3 17 -0.5t12 -15.5q6 -19 12.5 -39t16 -39t23.5 -34t34 -23z" />
    <glyph glyph-name="x" unicode="x" horiz-adv-x="305" 
d="M316 45q11 -3 14.5 -12t1 -17.5t-9.5 -13.5t-18 -2q-69 23 -118 63.5t-87 93.5q-20 -44 -32 -90.5t-11 -95.5q0 -12 -7.5 -17.5t-16 -5.5t-16 5.5t-7.5 17.5q-1 52 14 115t44 120q-17 29 -33 61t-31 65q-5 10 -1 19t11.5 13.5t16 3t13.5 -11.5q12 -27 25 -53t27 -52
q31 45 72.5 75.5t94.5 35.5q11 1 16.5 -6t5.5 -15.5t-5.5 -16.5t-16.5 -9q-23 -2 -43 -12.5t-37.5 -26t-32 -34.5t-26.5 -38q35 -54 81 -95t112 -64z" />
    <glyph glyph-name="y" unicode="y" horiz-adv-x="448" 
d="M445 -16q15 -94 -5 -182.5t-80 -163.5q-32 -41 -69.5 -74t-80.5 -61q-19 -12 -40.5 -24t-44.5 -21.5t-46.5 -14.5t-47.5 -3q-39 3 -61.5 23.5t-32.5 49.5t-9 63t10 65q3 11 12 14.5t17.5 1t13.5 -9.5t2 -18q-4 -13 -7 -28.5t-3 -31.5t3 -31t11 -27q13 -19 34 -23.5
t43.5 0t44.5 14t38 18.5q70 40 130.5 95.5t94.5 130.5q22 49 29 97.5t2 96.5t-20 94.5t-36 91.5q-8 -26 -20 -51t-29.5 -43t-40.5 -26t-52 -1q-47 12 -80.5 42.5t-54.5 71t-31 87t-11 89.5q0 11 7 16.5t16 5.5t16.5 -5.5t7.5 -16.5q0 -35 5 -71t22 -68q8 -15 18.5 -31.5
t24 -31t29 -25.5t33.5 -15q28 -7 48 6t32 36t17.5 50.5t6.5 49.5q-12 22 -24.5 43t-26.5 42q-6 10 -2.5 18.5t11 12.5t17 3t15.5 -11q22 -36 45 -74.5t43 -78.5t35 -81.5t21 -84.5z" />
    <glyph glyph-name="z" unicode="z" horiz-adv-x="472" 
d="M466 98q10 6 18.5 2.5t13 -11t3.5 -17t-11 -15.5l-68 -42t-68 -43q-25 -64 -54 -126.5t-60 -122.5q-20 -38 -41 -77.5t-45.5 -78t-53.5 -72.5t-64 -60q-29 -21 -57 -25t-52.5 6t-43.5 33t-29 56q-15 48 4 95.5t54.5 90t78.5 78t75 60.5q60 48 122.5 90.5t126.5 83.5
q11 28 20 55.5t17 56.5q-20 -7 -40.5 -15.5t-40.5 -16.5q-24 -11 -48.5 -21.5t-49.5 -21.5q-12 -5 -23.5 -9t-24.5 1q-5 2 -8.5 8.5t-2.5 11.5q1 13 8.5 26.5t17.5 27t21 25.5t18 22q18 24 40 52t36 57q-26 -5 -51 -12q-38 -11 -75 -23.5t-74 -26.5q-11 -4 -18.5 1
t-9.5 13.5t1 17.5t14 13q45 17 90 32.5t92 25.5l18 4.5t20.5 4t20 0.5t17.5 -6q14 -9 11 -27q-9 -36 -33.5 -70t-45.5 -63l-16 -22l-16 -22q8 4 15.5 7t15.5 7q28 12 56.5 24.5t57.5 21.5q36 11 49.5 -5t4.5 -48q-5 -17 -10 -33t-10 -33q22 14 43.5 27.5t43.5 27.5z
M243 -163q11 23 21 45.5t20 45.5q-32 -21 -64 -43t-64 -45q-46 -34 -90.5 -69.5t-83.5 -77.5q-13 -14 -28 -30.5t-27.5 -34.5t-21.5 -37t-10 -39q-1 -13 3 -29t11.5 -31t19 -26t25.5 -14q13 -2 26 3t25 13t22 18.5t18 18.5q65 71 111.5 158t86.5 174z" />
    <glyph glyph-name="A" unicode="A" horiz-adv-x="430" 
d="M526 364q11 -2 14.5 -10.5t1.5 -16.5t-9.5 -14t-18.5 -4q-36 8 -72.5 15t-73.5 14q9 -51 19.5 -102t21.5 -102q3 -11 -3 -18.5t-14.5 -9.5t-16.5 1.5t-11 14.5q-13 56 -23.5 111.5t-21.5 112.5q-98 15 -195 24q-20 -174 -35.5 -345t-23.5 -345q0 -12 -7.5 -17.5
t-16.5 -5.5t-16 5.5t-6 17.5q7 175 23 347.5t36 346.5q-138 10 -276 6q-11 0 -17 7t-6 16t6 16.5t17 7.5q71 2 141 0.5t140 -7.5q20 175 41 347.5t37 347.5q1 10 10 17q2 7 8.5 11.5t14 5t14 -3.5t8.5 -13q24 -92 43 -185t35.5 -186.5t32 -187t32.5 -187.5q42 -7 83.5 -15
t83.5 -17zM130 426q45 -4 90 -9.5t90 -12.5q-27 155 -52 308.5t-60 307.5q-15 -149 -33 -297t-35 -297z" />
    <glyph glyph-name="B" unicode="B" horiz-adv-x="1094" 
d="M1163 449q1 -27 -8.5 -50t-25.5 -43t-35.5 -38t-37.5 -34q-51 -48 -104.5 -89t-107.5 -84q-108 -85 -221.5 -157.5t-231.5 -143.5q-23 -14 -64 -37t-88.5 -44t-97 -35.5t-90 -12t-66.5 27.5t-28 82q0 11 7 16.5t16 5.5t16.5 -5.5t7.5 -16.5q1 -43 28.5 -55.5t69.5 -5
t92 29t96.5 46.5t83 47.5t51.5 31.5q101 60 197 123.5t189 135.5q48 38 95.5 73t92.5 77q15 14 35 31t38.5 35.5t31 39.5t12.5 44q-9 12 -26 17.5t-37 7t-39 0.5t-32 -2q-62 -5 -122.5 -14t-120.5 -22q-124 -26 -243.5 -62.5t-239.5 -76.5q-13 -4 -20.5 3.5t-7.5 18.5
q-3 5 -2 12t8 12q75 61 142 132t112 159q15 29 26 59t17 62q1 9 4.5 24t5 31t0 31t-8.5 23q-1 0 -2 1q-29 21 -60 15t-61 -25t-56.5 -44.5t-44.5 -44.5q-49 -51 -91.5 -106t-74.5 -118q-3 -6 -6 -11.5t-5 -11.5q10 -35 18 -72q14 -64 21.5 -130t4.5 -132q-1 -17 -2.5 -36.5
t-6 -38t-14.5 -34t-27 -23.5h-1q-5 -3 -11 -3q-31 -1 -49.5 15t-28.5 40.5t-13.5 52.5t-3.5 52q-1 81 14 160t49 153q-29 89 -77 161t-123 132q-9 7 -8 15.5t7 14.5t15.5 8t18.5 -5q70 -57 117.5 -124t78.5 -145q40 72 90.5 136t110.5 119q23 20 51 41.5t58.5 35.5t62.5 16
t63 -17q1 -1 5 -3q25 -17 32 -47.5t4 -65t-12.5 -68.5t-17.5 -56q-33 -86 -90 -159.5t-125 -136.5q115 38 231.5 70.5t236.5 52.5q57 9 114.5 17t114.5 4q16 -1 34 -3t34.5 -7.5t30.5 -15t21 -25.5q2 -2 2 -4t1 -4q0 -4 1 -6zM127 253q-4 92 -26 189q-17 -50 -25.5 -100.5
t-10.5 -104.5q0 -14 -0.5 -37t3 -46.5t12.5 -41t27 -20.5q13 10 18 31.5t5.5 46t-1 47.5t-2.5 36z" />
    <glyph glyph-name="C" unicode="C" horiz-adv-x="733" 
d="M875 -117q8 8 17.5 7t15.5 -7t7 -15.5t-7 -17.5q-46 -46 -101.5 -85t-116.5 -66.5t-126.5 -42.5t-131.5 -12q-59 2 -116 16.5t-105 51.5q-50 38 -88 89.5t-63 108.5q-29 67 -42.5 141.5t-16.5 151t3 152.5t17 147q9 61 23 124t35 123t51.5 115t73.5 102q1 3 4 4l3 3
q27 23 57 42.5t62.5 30t66.5 10t69 -17.5q37 -18 66.5 -46t52.5 -61t41 -70t34 -74q6 -14 16 -42.5t19 -62.5t14 -69.5t1 -64t-20 -45t-48 -13.5q-11 1 -17 9t-6 16.5t6 15t17 5.5q14 -1 19 13.5t3 38t-8 52.5t-14 56t-15 48t-11 29q-12 28 -26.5 58.5t-32 59t-39.5 53
t-49 39.5q-32 19 -62 22.5t-58.5 -4t-55.5 -25t-52 -39.5q-41 -43 -69.5 -95t-49 -108.5t-33 -115t-21.5 -115.5q-10 -68 -14.5 -135.5t-2.5 -136.5q2 -66 8 -134.5t29 -131.5q21 -57 54.5 -111t81.5 -93q47 -39 104.5 -55.5t117.5 -15.5q122 3 233 55.5t196 137.5z" />
    <glyph glyph-name="D" unicode="D" horiz-adv-x="801" 
d="M670 1036q51 -17 83.5 -52.5t51 -83.5t25.5 -103.5t6.5 -111.5t-6 -108t-12.5 -93q-17 -106 -53.5 -207.5t-88.5 -194.5q-53 -95 -123 -179t-165 -138q-10 -6 -18.5 -2.5t-12.5 11t-3 16.5t11 15q45 25 83.5 58.5t72 72.5t62 81.5t52.5 87.5q47 86 82.5 178.5t52.5 189.5
q12 72 17 146t-3 146q-4 34 -12 71t-24 69t-41.5 56.5t-63.5 34.5q-4 0 -7 3q-51 10 -100.5 0.5t-95 -32.5t-86.5 -55.5t-75 -66.5q-115 -117 -169 -266q8 -20 14.5 -39t13.5 -39q26 -81 50 -161.5t44 -162.5q19 -76 37 -153.5t19 -156.5q0 -15 -12 -20q-8 -6 -16 -6
q-16 0 -30 7t-26.5 17.5t-23 23t-19.5 23.5q-29 35 -52 75t-41 82q-21 49 -33 105t-15 113.5t2.5 114t18.5 108.5q9 36 21 69q-17 50 -35.5 98t-41.5 95q-28 58 -60 114t-67 111q-6 10 -2.5 18.5t11 13t17 3t15.5 -10.5q57 -92 103 -185.5t84 -192.5q32 72 77 136.5
t105 119.5q39 36 85 68.5t96 53.5t103.5 27.5t109.5 -8.5q4 0 8 -4zM183 181q-20 78 -42 154.5t-48 152.5q-4 10 -5 15q-23 -96 -21 -201t37 -198q14 -37 32.5 -71t41.5 -66q4 -6 11 -16t15 -20.5t17.5 -20.5t18.5 -16q-5 73 -22.5 145t-34.5 142z" />
    <glyph glyph-name="E" unicode="E" horiz-adv-x="537" 
d="M705 -164q8 7 17.5 6t15.5 -7.5t7 -15.5t-7 -16q-71 -66 -155 -89t-181 -12h-2q-1 0 -2 0.5t-2 0.5q-76 13 -130 54t-90 99.5t-56 129t-27 143.5q-23 -2 -46 -5t-46 -5q-11 -1 -16.5 5.5t-5.5 15.5t5.5 17t16.5 9q23 2 44.5 4.5t43.5 4.5q-5 94 6 176q7 61 24 131
t45.5 136.5t68 125t91.5 97.5t116.5 52t143.5 -10q11 -3 14.5 -12t1 -17.5t-9.5 -13.5t-18 -2q-73 21 -132 6.5t-106 -53.5t-81.5 -97t-58.5 -123t-38 -131t-18 -121q-2 -32 -3 -67t1 -72q88 9 173.5 17.5t173.5 16.5q11 1 16.5 -6t5.5 -15.5t-5.5 -16.5t-16.5 -9
q-87 -7 -172 -15.5t-171 -17.5q6 -65 23 -129t48.5 -116.5t79 -90t116.5 -50.5q85 -9 160 10t138 78z" />
    <glyph glyph-name="F" unicode="F" horiz-adv-x="727" 
d="M1506 894q7 -8 6 -17.5t-7.5 -15.5t-15.5 -7t-16 7q-16 18 -39.5 26t-49.5 11t-52.5 3t-47.5 1q-60 2 -119 3t-119 2q-125 1 -248.5 0t-248.5 -8q-73 -4 -146 -9.5t-146 -16.5q-2 -98 -1 -195.5t1 -195.5q45 3 88 5.5t88 5.5q103 5 205.5 10.5t205.5 7.5q11 0 16.5 -7
t5.5 -15.5t-5.5 -16t-16.5 -7.5q-103 -3 -205.5 -8t-205.5 -11q-45 -2 -88 -4.5t-88 -5.5q1 -49 0.5 -97t-1.5 -96q-4 -144 -15 -286.5t-22 -285.5q-1 -11 -9 -17t-16.5 -6t-15.5 6t-6 17q11 143 22.5 285.5t14.5 286.5q1 48 1 94.5v94.5q-52 -5 -103.5 -11t-103.5 -15
q-11 -2 -18.5 4t-9.5 14.5t1.5 16.5t14.5 10q54 10 109 16t110 11q-1 98 -1.5 194.5t1.5 193.5q-17 -3 -32.5 -5.5t-32.5 -6.5q-84 -17 -168.5 -38t-162.5 -55q-11 -4 -20 0t-13.5 11.5t-3 16t12.5 13.5q100 43 206 69.5t215 43.5v23q0 12 7.5 17.5t16.5 5.5t16 -5.5
t7 -17.5v-17q77 10 153 16t151 10q139 7 276 7.5t276 -1.5q60 -2 120 -2.5t120 -5.5q20 -2 41 -3.5t40.5 -7t37.5 -15t33 -25.5z" />
    <glyph glyph-name="G" unicode="G" horiz-adv-x="806" 
d="M818 191q10 4 17.5 -1.5t9.5 -13.5t-1.5 -17t-13.5 -13q-38 -14 -79.5 -21.5t-84.5 -11.5q2 -75 -27.5 -146.5t-74.5 -130.5q-42 -55 -92.5 -94t-116.5 -61q-33 -11 -66.5 -15t-66 0.5t-63 18t-56.5 38.5q-48 45 -73.5 107.5t-28.5 128.5q-4 87 6.5 174t30.5 172.5
t49 168.5t63 163q9 21 23.5 52t33 62.5t41.5 59t48.5 41t53 8t55.5 -39.5q7 -9 5.5 -18.5t-7.5 -15.5t-15 -7t-16 8q-17 20 -33 22.5t-30.5 -6t-27.5 -24t-24 -32.5q-24 -38 -43.5 -80t-36.5 -84q-55 -139 -92.5 -284t-37.5 -295q0 -31 3.5 -62.5t11.5 -61.5t22.5 -58
t36.5 -51q48 -50 108.5 -57.5t123.5 16.5q55 21 103.5 60.5t85 90.5t57 110t19.5 119q-27 -2 -53.5 -1.5t-52.5 1.5l-45 2.5t-53.5 6.5t-49.5 15t-34 30q-5 5 -5 12q-4 25 8 42.5t32.5 29.5t44 18t42.5 8q28 3 59 0.5t59.5 -12t51 -28t33.5 -48.5q0 -2 0.5 -2.5t0.5 -2.5
q0 -1 1 -1q0 -2 0.5 -2.5t0.5 -2.5q1 -4 1.5 -7t1.5 -7q41 3 80.5 10t76.5 20zM551 156q15 1 30.5 1t31.5 1q0 4 -2 10q-7 21 -23.5 33.5t-37 19t-43 8t-40.5 -0.5q-5 0 -21 -2.5t-33 -7t-30 -11.5t-13 -17q4 -8 13.5 -12.5t20.5 -7.5t21.5 -4.5t18.5 -2.5q27 -4 53.5 -5.5
t53.5 -1.5z" />
    <glyph glyph-name="H" unicode="H" horiz-adv-x="549" 
d="M1415 456q11 0 16.5 -7t5.5 -16t-5.5 -16.5t-16.5 -7.5q-218 -7 -433 -7t-433 -5q-38 -1 -77 -2t-77 -2q5 -126 10 -250t8 -249q0 -11 -7 -17t-15.5 -6t-16 6t-7.5 17q-3 125 -8.5 248.5t-10.5 248.5q-41 -2 -81 -2.5t-81 -2.5q21 -149 38.5 -297.5t30.5 -299.5
q1 -11 -5.5 -16.5t-15.5 -5.5t-16.5 5.5t-8.5 16.5q-14 150 -31.5 298.5t-38.5 297.5q-81 -2 -161 -2t-161 5q-11 0 -17 7.5t-6 16.5t6 16t17 6q80 -4 158.5 -4t157.5 2q-19 130 -40 258t-44 257q-2 11 4 18.5t14.5 10t16.5 -1t10 -14.5q23 -132 44.5 -263t41.5 -264
q42 1 83 2t83 3q-11 217 -18 435q0 12 7 17.5t16 5.5t16.5 -5.5t7.5 -17.5q4 -109 8 -216.5t9 -216.5q45 1 88 2t87 2q214 3 424 4t424 8z" />
    <glyph glyph-name="I" unicode="I" horiz-adv-x="137" 
d="M47 989q2 -4 2 -8q14 -286 30.5 -568.5t36.5 -568.5q1 -11 -6 -17t-16 -7t-16.5 4.5t-8.5 16.5q-18 266 -33 527.5t-29 527.5q-5 -10 -8 -19q-11 -28 -16 -56.5t-10 -57.5q-2 -11 -9.5 -15.5t-16 -2.5t-15 9t-4.5 18q8 63 28.5 115.5t46.5 109.5q4 8 11 10.5t14 1
t12.5 -7t6.5 -12.5z" />
    <glyph glyph-name="J" unicode="J" horiz-adv-x="852" 
d="M895 191q10 -5 11.5 -14t-3 -16.5t-13 -11.5t-18.5 1q-46 23 -93.5 44t-97.5 37q22 -170 34.5 -341t9.5 -342t-24.5 -340t-67.5 -335q-26 -92 -63 -181t-95 -166q-22 -29 -47.5 -59t-54.5 -56t-61.5 -47t-68.5 -32q-50 -15 -93.5 -8t-80 29.5t-66.5 58t-54.5 76t-43 83.5
t-32.5 82q-52 147 -67.5 303t-1 313t56 310t103.5 293q24 55 54 113t67.5 111.5t83.5 97.5t103 72q66 32 142 38.5t148 -1.5q17 -2 32.5 -4.5t31.5 -6.5q-17 142 -41.5 281t-66.5 275q-11 -26 -25 -55t-31 -56t-36 -48.5t-39 -32t-41.5 -7t-42.5 26.5q-8 8 -6.5 17.5t8 16
t15 7.5t16.5 -8q13 -15 29 -8t32.5 26.5t32.5 48t29.5 57t23 52.5t13.5 36q0 8 5 12.5t12 6.5q11 3 20.5 -2.5t10.5 -16.5q32 -94 53 -188.5t38 -193.5q11 -64 21 -128.5t19 -130.5q57 -16 111.5 -39t108.5 -50zM649 100q-5 36 -8.5 72t-8.5 72q-48 12 -98 15q-35 2 -70 1.5
t-69.5 -5.5t-67 -16t-62.5 -30q-51 -34 -92 -80t-75 -98.5t-61 -108.5t-49 -111q-53 -132 -89.5 -275t-49 -288.5t2 -290t62.5 -281.5q12 -34 26.5 -70t32.5 -70.5t40.5 -66t50.5 -55.5q37 -32 77 -39.5t78.5 2t74.5 33.5t67 55q72 72 122 160t83 184t53 197t34 199
q30 224 25.5 447.5t-29.5 447.5z" />
    <glyph glyph-name="K" unicode="K" horiz-adv-x="398" 
d="M620 635q9 7 18.5 6t15.5 -7t7 -15t-8 -17q-94 -87 -189.5 -171t-196.5 -163v-110q45 2 89 -3q11 -1 16.5 -9t5.5 -17t-5.5 -15.5t-16.5 -5.5q-23 3 -45 3.5t-45 -0.5v-15t-1 -14q-2 -81 -3.5 -161t-9.5 -160q-1 -11 -9 -17t-17 -6t-15.5 6t-5.5 17q9 84 10.5 167.5
t3.5 168.5v9q-81 -11 -157.5 -40t-145.5 -74q-9 -6 -17.5 -11.5t-17.5 -11.5h-1q-3 -3 -5 -4q-9 -6 -17.5 -2.5t-13 11t-3.5 17t10 15.5q4 1 7 4l36 24q85 59 165 124.5t161 131.5l-3 96q-8 148 -32.5 291t-65.5 285q-3 11 2 18t13.5 9.5t17.5 -1t12 -14.5q42 -145 67 -291
t33 -297q0 -15 0.5 -30t1.5 -30q92 75 179.5 152t174.5 157zM90 126q62 19 130 28q0 20 0.5 39t0.5 38q-33 -26 -65.5 -52.5t-65.5 -52.5z" />
    <glyph glyph-name="L" unicode="L" horiz-adv-x="559" 
d="M2033 -126q11 -2 14.5 -9.5t1.5 -16t-9.5 -15t-18.5 -4.5q-261 37 -521.5 43.5t-523.5 -1.5q-131 -5 -261 -13.5t-260 -28.5q-123 -18 -246.5 -44t-240.5 -71q-8 -3 -13.5 -0.5t-9.5 7.5q-12 8 -6 23q62 146 106 301.5t78 310.5q35 161 51.5 321.5t8.5 325.5q0 11 7 16.5
t16 5.5t16.5 -5.5t7.5 -16.5q8 -168 -9 -332t-53 -328q-32 -143 -71.5 -286.5t-93.5 -280.5q110 38 225.5 61.5t229.5 39.5q129 18 258 27t260 14q132 4 264.5 4.5t265 -4t264.5 -15t263 -29.5z" />
    <glyph glyph-name="M" unicode="M" horiz-adv-x="752" 
d="M850 -101q9 -7 9.5 -16.5t-4 -17t-12.5 -10.5t-17 4q-59 45 -105.5 103t-82 125t-61 140t-43.5 148q-1 -10 -2 -19.5t-2 -19.5q-3 -19 -6.5 -40.5t-10 -42t-18.5 -37t-31 -25.5l-2 -2q-39 -21 -77 -11.5t-72.5 36t-62.5 61t-47 62.5q-34 52 -64 109t-54 117
q13 -239 -1.5 -478.5t-36.5 -477.5q-1 -11 -8.5 -16.5t-16.5 -5.5t-15.5 5.5t-5.5 16.5q13 145 24.5 290.5t16 291.5t0 291.5t-22.5 290.5q-1 13 8 19q3 6 9.5 9.5t13.5 3.5t12 -3.5t7 -12.5q17 -100 55.5 -195.5t89.5 -182.5q8 -14 21.5 -36t30.5 -45.5t37.5 -46t42.5 -38
t44 -21t44 5.5q4 3 9 4q9 3 15 11.5t10 19t6 22t4 19.5q6 32 8 63.5t2 63.5q1 71 -1 141t-6 142q0 8 3.5 13t9.5 7t12.5 1.5t11.5 -3.5q14 -7 15 -21q7 -110 26 -220.5t54 -216.5q18 -51 40.5 -103.5t51.5 -101.5t65 -92.5t80 -77.5z" />
    <glyph glyph-name="N" unicode="N" horiz-adv-x="599" 
d="M769 921q6 -31 1 -63t-15 -63.5t-22.5 -62t-22.5 -58.5q-29 -76 -59.5 -150t-61.5 -149q-37 -90 -71 -181t-55 -187q-8 -38 -16.5 -87.5t-8 -99t16 -93t54.5 -68.5q9 -6 10.5 -15.5t-3 -17t-13 -10.5t-18.5 3q-33 21 -52 51.5t-28 66t-10.5 73.5t1.5 74q8 89 31 174.5
t54 169.5q33 90 70 177t72 175q25 62 51 125.5t42 129.5q1 6 4.5 22t4.5 33t-2 30.5t-15 15.5q-16 2 -35 -5t-38 -18t-36 -23.5t-29 -21.5q-67 -48 -121 -107.5t-98 -129.5q-87 -140 -149 -291.5t-117 -306.5q-3 -10 -11.5 -13.5t-16.5 -2t-14 8t-4 15.5q-12 40 -16 85.5
t-2 91.5t10 91t21 84q3 11 12 14.5t17.5 1t13.5 -10t2 -18.5q-18 -55 -26 -121.5t-1 -129.5q5 14 10 27.5t10 27.5q27 73 56.5 147.5t64 146.5t75.5 140t90 130q11 14 42.5 46t72 67t86 67t85.5 46.5t69 4.5t38 -58z" />
    <glyph glyph-name="O" unicode="O" horiz-adv-x="710" 
d="M762 764v-3q-3 -116 -21 -238.5t-57 -238.5t-101 -220t-154 -183l-1 -1q-1 -1 -2 -1.5t-2 -1.5q-18 -11 -37 -19.5t-39 -12.5t-40 -1t-39 16q-16 11 -27.5 27t-20 34.5t-13 38t-7.5 37.5q-9 62 -5 126t15.5 127t29 124.5t35.5 120.5q3 11 12 14.5t17.5 1t13.5 -9.5t2 -18
q-16 -51 -31.5 -104.5t-27 -108.5t-17.5 -110t-3 -109q2 -33 8.5 -69t26.5 -64q12 -17 27 -23t30.5 -4.5t32 9t31.5 16.5q88 76 147.5 176.5t96 212.5t53.5 230t20 229q0 17 -3 35.5t-9.5 36t-17.5 31.5t-29 22q-30 13 -61 4t-58 -25q-69 -42 -126 -101t-104 -124
q-51 -71 -93 -145.5t-77 -153.5q-27 -61 -49 -128t-23 -135q0 -11 -7.5 -17t-16 -6t-16 6t-7.5 17q1 83 29.5 163.5t63.5 153.5q46 97 101 188t127 171q24 27 54.5 59t65 59.5t73 46.5t78.5 21q38 1 66 -13.5t46.5 -39.5t28.5 -57t11 -66v-3z" />
    <glyph glyph-name="P" unicode="P" horiz-adv-x="547" 
d="M1085 924q2 -9 -1 -14q5 -52 -10.5 -97t-45.5 -83.5t-71 -70.5t-86 -58.5t-92 -48t-88 -38.5q-78 -32 -156.5 -58.5t-159.5 -47.5q-57 -14 -113.5 -27t-114.5 -24q1 -171 -16.5 -340.5t-36.5 -339.5q-1 -11 -9 -17t-16.5 -6t-15.5 6t-5 17q19 168 36 335.5t16 336.5
q-58 -7 -116 -12q-11 0 -17 7t-6 16t6 16.5t17 7.5q58 3 115 12q-8 204 -68 399q-16 -12 -30.5 -24.5t-28.5 -25.5q-28 -26 -59.5 -59.5t-54.5 -72t-32 -80t8 -82.5q4 -10 0 -19t-11.5 -13.5t-16.5 -3t-13 12.5q-19 45 -14.5 90t24 87t49 79.5t61.5 68.5q24 24 49.5 46
t52.5 43q-7 19 -13.5 37.5t-14.5 36.5q-5 10 0 17.5t13.5 9.5t17.5 -1t14 -13q6 -14 11.5 -29t10.5 -29q58 41 119 75t124 63q58 26 116.5 49t118.5 38.5t122 21.5t127 -1q43 -5 87 -14t83.5 -26.5t71 -44.5t49.5 -68q2 -2 4 -8q0 -2 0.5 -2.5t0.5 -2.5q2 -6 4 -12.5
t4 -14.5zM642 544q39 15 87 35.5t95.5 46t90.5 57t73.5 70t43.5 84t1 98.5q-17 45 -53 72t-81 42t-93.5 20t-91.5 5q-54 0 -106 -8.5t-103 -24t-100.5 -36t-97.5 -43.5q-61 -29 -120.5 -63t-116.5 -74q34 -103 53 -208.5t23 -212.5q52 9 102.5 21t101.5 25q75 20 147.5 43
t144.5 51z" />
    <glyph glyph-name="Q" unicode="Q" horiz-adv-x="692" 
d="M759 -171q11 -3 14.5 -11.5t1 -17t-10 -14t-18.5 -2.5q-71 20 -138 49t-124 74q-43 -21 -91.5 -30.5t-99.5 -8.5h-4q-2 0 -4 1q-61 6 -104.5 33.5t-73 69.5t-46.5 95t-25 109t-9 112t3 105q6 91 24.5 181.5t56.5 174.5q13 29 34.5 62t49 56.5t60 31t68.5 -14.5
q9 -6 10.5 -15.5t-3 -17t-13 -11t-18.5 2.5q-22 14 -42.5 9t-38.5 -22t-33.5 -42t-27.5 -51t-21 -50t-13 -39q-21 -69 -33.5 -140.5t-14.5 -143.5q-1 -40 0 -87.5t7.5 -95.5t20.5 -94t38 -83t60 -61t88 -28q42 -1 81.5 5.5t75.5 20.5q-21 21 -39 45q-7 9 -4 17.5t11 13
t17.5 3.5t16.5 -10q9 -13 19.5 -24.5t21.5 -22.5q36 23 64 57t43 82q19 57 25 116.5t2.5 119.5t-15 119.5t-28.5 115.5q-14 46 -33.5 97.5t-45 100.5t-59 91.5t-76.5 69.5q-50 32 -103.5 33.5t-99.5 -21t-77.5 -66.5t-37.5 -103q-1 -11 -9 -16.5t-17 -5.5t-15.5 5.5
t-5.5 16.5q6 57 35.5 108t74.5 85t101 45.5t115 -9.5q57 -21 102 -62.5t79.5 -94t60 -110.5t43.5 -112q22 -66 37.5 -137t20.5 -143t-3 -143t-35 -137q-17 -44 -44 -76.5t-61 -56.5q51 -38 111 -62t121 -41z" />
    <glyph glyph-name="R" unicode="R" horiz-adv-x="1250" 
d="M1527 892q7 -35 -3.5 -66t-32 -57t-50.5 -48t-59 -39q-88 -49 -181.5 -86t-186.5 -74q-6 -2 -36 -13.5t-74.5 -29t-99.5 -39t-111.5 -45t-109.5 -47t-95 -44t-67.5 -37t-25.5 -25.5q1 -1 1.5 -1t1.5 -1q2 -2 10 -3.5t17 -3t18.5 -3t14.5 -2.5q23 -4 45 -7t45 -6
q48 -6 95.5 -11.5t95.5 -10.5q134 -15 266 -31t266 -23q11 0 16.5 -7.5t5.5 -16.5t-5.5 -16t-16.5 -7q-149 8 -296.5 26t-296.5 35q-48 5 -95 11t-95 13q-14 2 -30 3.5t-32.5 4t-32 7t-26.5 13.5q-8 3 -12 11q-11 18 -5.5 35t19.5 33t35.5 30t43 25.5t40 20t29.5 13.5
q79 38 159.5 68.5t161.5 62.5q103 40 205.5 79.5t204.5 84.5q28 12 70 31.5t80.5 45t64 58t21.5 71.5q-2 6 -2 7q0 4 -1 6q-1 5 -3 10.5t-4 10.5q-2 4 -2.5 7.5t-0.5 7.5q-19 46 -63.5 78.5t-98.5 54.5t-109.5 35t-97.5 21q-81 15 -163.5 20.5t-166 2.5t-166 -12.5
t-163.5 -22.5q-97 -17 -190.5 -39.5t-186.5 -53.5q34 -173 52 -346.5t29 -349.5q10 -151 16 -301.5t26 -300.5q1 -11 -5 -18.5t-14.5 -9.5t-16.5 1.5t-9 14.5q-20 149 -26.5 299t-16.5 301q-11 175 -28.5 348.5t-50.5 346.5q-186 -66 -356.5 -163.5t-319.5 -231.5
q-9 -8 -18.5 -6.5t-15.5 8t-7 15t8 16.5q155 139 331 239.5t369 168.5q-5 20 -9 39.5t-9 39.5q-2 11 4 18t14.5 9.5t16.5 -1t11 -14.5l8 -38l8 -38q110 36 222.5 61.5t227.5 41.5q86 12 173 19t174 6.5t173.5 -11t170.5 -33.5q48 -13 102.5 -32t102 -47.5t81.5 -69t43 -96.5
z" />
    <glyph glyph-name="S" unicode="S" horiz-adv-x="615" 
d="M696 -349q0 -8 -3 -12q-3 -24 -16.5 -41.5t-34.5 -28.5t-46.5 -16.5t-50.5 -6.5q-39 -1 -79 4.5t-78 18.5t-72 34.5t-59 52.5q-27 32 -36.5 68.5t-5.5 73.5t19.5 73t39.5 66q11 13 21.5 25t21.5 23q-12 13 -24 25.5t-23 26.5q-63 77 -117 159t-93 174q-31 72 -47.5 150.5
t-10.5 155.5t37.5 147.5t96.5 125.5q53 45 117 67t133 11q32 -6 64 -18t59.5 -30.5t50 -43.5t36.5 -56q20 -45 25 -100.5t-5.5 -110t-37 -102t-70.5 -77.5q-9 -7 -17 -4t-12.5 10.5t-3.5 17.5t10 16q22 15 38 38t27 49.5t17 54.5t8 53q2 32 -2.5 64.5t-16 61.5t-31.5 53.5
t-49 41.5q-52 29 -103.5 34.5t-99 -9t-88.5 -45t-71.5 -72t-49 -92t-20.5 -104.5q-2 -48 6 -95.5t22.5 -94t34.5 -91t43 -85.5q42 -75 92 -144.5t110 -129.5q58 48 126 83t138 59q11 4 18.5 -1.5t9.5 -13.5t-1.5 -17t-13.5 -13q-65 -22 -127 -53.5t-116 -75.5
q50 -46 101 -89.5t100 -90.5q15 -15 33.5 -32t35 -36.5t27.5 -41t13 -44.5zM502 -406q20 -2 48 -1t52 8.5t37 24t4 47.5q-1 0 -1 2q-8 17 -23 32.5t-26 26.5q-25 25 -50.5 48.5t-51.5 46.5q-35 31 -70.5 61.5t-69.5 62.5l-1 -1q-22 -22 -43 -50t-33.5 -58.5t-14.5 -63.5
t15 -65q16 -30 41 -52t56 -37t64.5 -22.5t66.5 -9.5z" />
    <glyph glyph-name="T" unicode="T" horiz-adv-x="397" 
d="M947 975q11 0 16.5 -7.5t5.5 -16.5t-5.5 -16t-16.5 -7q-98 3 -196.5 7.5t-197 6.5t-197 0t-195.5 -11q-14 -2 -27.5 -3t-27.5 -3q26 -155 32 -312t9 -313q4 -153 5.5 -304.5t1.5 -304.5q0 -11 -7.5 -17t-16 -6t-16 6t-7.5 17q0 153 -1.5 304.5t-5.5 304.5
q-3 154 -9 310.5t-31 308.5q-44 -7 -85.5 -18t-79.5 -30q-68 -35 -88.5 -92t2.5 -132q3 -11 -2 -18t-13.5 -9.5t-17.5 1t-12 14.5q-11 36 -13.5 72.5t5.5 70t28 62.5t53 51q48 32 103 48t112 25l-4 18t-4 19q-2 11 4 18.5t14 9.5t16.5 -1.5t10.5 -14.5l9 -42
q105 13 211.5 17t213 2.5t213 -6.5t211.5 -9z" />
    <glyph glyph-name="U" unicode="U" horiz-adv-x="717" 
d="M737 209q6 -10 2.5 -18.5t-11 -12.5t-16.5 -3t-15 11q-18 32 -31 65t-23 68q-2 -36 -4.5 -71.5t-6.5 -70.5q-4 -37 -10 -82t-16.5 -91t-26.5 -90.5t-40.5 -81t-58.5 -63t-79 -36.5q-1 0 -1.5 -0.5t-2.5 -0.5h-2q-65 -5 -114 15.5t-85.5 58.5t-62 89.5t-42.5 107.5
t-27 113t-16 106q-11 94 -14.5 187.5t-8.5 187.5q-2 48 -2 95t-8 94q-2 9 -4 21.5t-6 25t-10 23t-16 14.5q-9 3 -16.5 -8t-13.5 -27t-9.5 -31.5t-3.5 -20.5q-1 -11 -8.5 -17t-16 -6t-15.5 6t-7 17q1 17 7 41.5t18 46t29.5 35.5t40.5 10q22 -3 36 -18t22.5 -34.5t13 -41.5
t6.5 -40q13 -96 13 -192.5t5 -192.5q3 -48 7.5 -114t15.5 -136.5t30.5 -138.5t53.5 -120.5t84 -83t121 -25.5q28 6 50 21.5t39.5 36.5t30.5 46t22 51q25 69 37.5 141t18.5 145q7 95 7 189.5t-6 189.5q-7 51 -11.5 101.5t-9.5 101.5q-1 2 -1 4v2q-2 11 4.5 19t15 10t16 -1.5
t9.5 -14.5q16 -114 24 -231q5 -31 9.5 -61.5t9.5 -60.5q12 -66 29.5 -132.5t50.5 -126.5z" />
    <glyph glyph-name="V" unicode="V" horiz-adv-x="638" 
d="M653 233q6 -10 2.5 -18.5t-11 -13t-16.5 -3.5t-15 11q-31 50 -42.5 108t-16.5 115q-1 5 -1 14q-14 -66 -31 -130t-36 -129q-23 -75 -47.5 -149t-56.5 -146q-5 -11 -13.5 -30.5t-20 -37.5t-25.5 -30.5t-31 -10.5q-24 0 -42 14t-31.5 33.5t-24 42t-17.5 40.5
q-32 76 -54 155.5t-42 159.5q-23 95 -43.5 189t-40.5 189q-8 37 -15 74t-18 73q-5 17 -10.5 35.5t-14.5 35.5q-8 13 -19 16.5t-23 0t-23 -12.5t-19 -19q-6 -9 -16 -10t-17.5 3.5t-10.5 12.5t4 17q9 12 25 26t35 23.5t38.5 11t35.5 -10.5q27 -20 39.5 -53t20.5 -64
q23 -85 39.5 -171t35.5 -172q23 -100 46 -199t55 -196q11 -37 24.5 -73.5t32.5 -70.5q3 -6 8 -14.5t11 -17t13 -14.5t15 -7h3l5 5q5 6 9 12.5t8 13.5q14 23 24.5 47.5t20.5 49.5q29 72 52.5 145t44.5 148q23 82 42.5 164.5t34.5 167.5q5 26 9 52.5t7 53.5q1 34 2 67.5
t3 68.5v1v9q-1 12 5.5 17.5t15.5 5.5t16.5 -6t8.5 -17q4 -38 2 -77t-7 -78q-2 -57 -1.5 -112.5t5.5 -112.5q4 -57 14 -114.5t40 -107.5z" />
    <glyph glyph-name="W" unicode="W" horiz-adv-x="1001" 
d="M1025 245q7 -9 4 -17t-10.5 -12.5t-17 -3.5t-16.5 10q-26 35 -41.5 75t-25.5 82q0 -4 -0.5 -8t-0.5 -9q-3 -45 -6.5 -94t-12.5 -98t-24.5 -95t-42.5 -84q-10 -14 -23 -27.5t-28.5 -22.5t-33 -12.5t-36.5 1.5q-40 11 -69 39.5t-51 61.5q-51 79 -84 170q-2 -72 -12.5 -142
t-36.5 -136q-9 -23 -21 -48t-28.5 -46t-38.5 -35t-50 -15t-52.5 8.5t-45 26t-36.5 38t-28 44.5q-35 69 -58.5 141t-39 146.5t-24.5 150t-14 151.5q-5 77 -5.5 154.5t-9.5 154.5q-3 25 -13 33t-24 5t-30 -14.5t-31 -25.5t-27.5 -28t-19.5 -22q-8 -8 -16.5 -7t-15 7t-8 15.5
t6.5 17.5q14 16 32 35.5t38 36t43 27t47 8.5q18 -2 30.5 -11.5t20 -24t10.5 -31t4 -31.5q4 -74 6.5 -148.5t7.5 -148.5t14 -148t24 -147q15 -72 37.5 -145.5t60.5 -137.5q9 -14 21.5 -31t28.5 -30.5t34.5 -20t38.5 -0.5q32 11 51 39t31 58q24 61 35.5 126.5t14.5 132
t-2 133.5t-15 131q-1 2 -1 5v1q-2 11 4 18.5t14.5 10t16.5 -1t10 -14.5q17 -98 46 -196t80 -184q9 -15 22 -36t30 -40t37 -29.5t42 -4.5q19 6 33 19.5t23.5 30.5t16.5 36.5t13 36.5q28 87 38 178.5t10.5 184.5t-4 186t-4.5 183q0 10 6 16t14 7t15.5 -3t10.5 -12q2 -6 2 -10
q5 -94 11 -187t23 -186q10 -55 25.5 -110t49.5 -101z" />
    <glyph glyph-name="X" unicode="X" horiz-adv-x="450" 
d="M551 -58q10 -4 13.5 -13t1.5 -17.5t-9.5 -13.5t-17.5 -1q-129 51 -223 149t-152 223q-57 -74 -118 -143t-126 -136q-8 -8 -17 -7t-15 7t-7.5 15.5t6.5 17.5q68 71 133 143.5t123 151.5q-50 128 -61.5 264t19.5 263q3 11 11 14.5t16.5 1.5t14.5 -9.5t3 -18.5
q-27 -111 -19 -233t49 -237q11 17 22 34.5t22 34.5q74 121 112 247t50 267q1 11 9 16.5t17 5.5t15.5 -5.5t5.5 -16.5q-13 -146 -52 -279t-117 -259q-15 -25 -31 -49t-33 -47q26 -62 61.5 -118.5t80 -104t98 -85.5t115.5 -62z" />
    <glyph glyph-name="Y" unicode="Y" horiz-adv-x="453" 
d="M446 720q9 -137 5.5 -276t-24.5 -276t-61.5 -269t-105.5 -255q-26 -49 -58 -97.5t-70.5 -90.5t-84.5 -76t-100 -53t-110 -24t-110 6t-102.5 38t-87.5 72q-8 8 -6.5 17.5t8 16t15 7.5t16.5 -8q39 -45 90.5 -70.5t107.5 -32t113 5.5t107 42q46 27 84.5 64.5t70.5 81
t58 90.5t48 95q35 78 61.5 159t45.5 164q-18 -13 -37 -22t-39 -12t-40.5 1t-41.5 17q-24 15 -44 35t-36 43.5t-29 49t-23 51.5q-28 70 -37 140.5t-10 145.5q0 101 11 201t38 198q3 11 11.5 14.5t17 1t14 -9.5t2.5 -18q-24 -87 -35 -175.5t-12 -178.5q0 -63 3 -126.5
t22 -123.5q15 -50 38.5 -100.5t62.5 -85.5q23 -21 45.5 -27.5t44 -2t42.5 18t40 34.5q3 3 7 5q27 147 33 296t-5 299q-1 11 6 16.5t16 5.5t16.5 -5.5t8.5 -16.5z" />
    <glyph glyph-name="Z" unicode="Z" horiz-adv-x="1265" 
d="M1869 789q3 -16 -11 -23q-221 -111 -446.5 -212t-448.5 -205q-134 -62 -269 -123t-261 -138q-76 -46 -150.5 -94t-146.5 -100l-4 -4q-1 0 -7.5 -5t-12 -11t-6.5 -10.5t8 -4.5q8 1 17 1t17 2q37 3 75 9q34 5 67.5 10.5t67.5 12.5q81 16 161 33t160 37q150 38 293 86.5
t283 116.5q10 5 18.5 1t13 -11.5t3 -16.5t-11.5 -14q-176 -85 -357.5 -141.5t-372.5 -98.5q-94 -20 -187 -38.5t-188 -29.5q-11 -2 -27.5 -4t-33 -1.5t-30.5 5.5t-20 19q-11 24 -0.5 43.5t28.5 35.5q3 4 7 7q78 57 159 109.5t164 102.5q127 76 263.5 137.5t270.5 123.5
q205 96 409.5 187.5t406.5 191.5q-216 31 -437 38t-442 -11t-438 -61t-424 -110q-11 -3 -18.5 2t-9.5 13.5t1.5 17.5t14.5 12q204 67 418 108.5t428 60.5q248 21 496 13t493 -49q9 -2 13 -7.5t4 -12.5z" />
    <glyph glyph-name="A.ss01" horiz-adv-x="482" 
d="M841 454q11 -1 16.5 -8.5t5.5 -16.5t-5.5 -16t-16.5 -6q-110 8 -220 6t-219 -7q-17 -1 -33.5 -2t-33.5 -2q16 -96 33 -190.5t39 -188.5q3 -11 -3 -18.5t-14.5 -10t-16.5 1t-11 14.5q-22 97 -39.5 194t-34.5 195q-38 -2 -75.5 -5t-75.5 -7q-24 -205 -45 -408.5t-29 -410.5
q0 -11 -7.5 -17t-16.5 -6t-16 6t-7 17q9 205 29.5 407.5t44.5 406.5q-33 -4 -66 -9l-66 -10q-11 -2 -18.5 4t-9.5 14.5t1.5 16.5t14.5 10q73 13 149 21q17 144 33.5 287t30.5 287q1 12 10 17q2 7 8.5 11.5t13.5 5t13.5 -3.5t9.5 -13q37 -142 63 -284.5t50 -287.5
q15 2 30 2.5t31 1.5q113 5 226 8t227 -6zM143 434q67 7 137 12q-19 114 -38.5 227t-45.5 225q-12 -117 -25.5 -232t-27.5 -232z" />
    <glyph glyph-name="C.ss01" horiz-adv-x="797" 
d="M926 487q2 -11 -4 -18.5t-14.5 -9.5t-16.5 1.5t-10 14.5q-10 51 -27 101t-41 97q-20 38 -47 76.5t-59.5 71t-70 56.5t-78 33t-83.5 -0.5t-87 -42.5q-54 -42 -98.5 -97.5t-80.5 -118t-64 -128.5t-50 -129q-18 -53 -32.5 -115.5t-16 -125t17 -120t66.5 -99.5q27 -24 60 -40
t68 -26t72 -15t72 -7q100 -6 199.5 1.5t196.5 29.5q11 3 18.5 -3t10 -14.5t-1 -16.5t-14.5 -11q-103 -23 -210 -32t-213 1q-36 3 -72 8t-71 14.5t-68 24.5t-62 37q-47 36 -72.5 85.5t-35 105t-5.5 113.5t17 111q32 132 90.5 258.5t142.5 234.5q36 46 79.5 85t93.5 61t105 22
t114 -31t106 -80.5t82 -109t58.5 -125t35.5 -128.5z" />
    <glyph glyph-name="F.ss01" horiz-adv-x="454" 
d="M901 886q11 0 17 -7.5t6 -16t-5.5 -16t-17.5 -7.5q-117 2 -233 3.5t-234 3.5q-57 1 -115 2.5t-115 -0.5q-12 0 -37.5 -1t-51.5 -5.5t-45.5 -14t-19.5 -26.5q-1 -3 -1 -5t-1 -4q2 -101 18 -201.5t33 -200.5q13 0 26 0.5t27 0.5q5 73 9.5 145t8.5 145q1 11 8.5 16.5t16 5.5
t15.5 -5.5t7 -16.5q-5 -73 -9 -145t-9 -144q78 1 156.5 -0.5t156.5 -6.5q11 -1 16.5 -8.5t5.5 -16t-5.5 -15.5t-16.5 -7q-79 5 -157.5 6.5t-158.5 0.5q-3 -62 -5.5 -123t-2.5 -123q-2 -101 -4 -200.5t-4 -200.5v-1v-3v-3q0 -11 -7.5 -17t-16.5 -6t-16 6t-7 17v7
q-5 146 -22.5 288.5t-39.5 286.5q-2 17 -5 34.5t-6 34.5q-9 0 -18.5 -0.5t-18.5 -0.5q-12 0 -17.5 7t-5.5 15.5t6 16t17 8.5h14t15 1q-17 102 -33 203.5t-18 204.5q0 6 2 12q3 29 24.5 46.5t53.5 27t70 12.5t75 3t68.5 -2t50.5 -2q140 -2 278 -4t278 -4zM149 344h-21t-21 -1
q3 -19 6 -37.5t6 -38.5q6 -38 11.5 -75t10.5 -75q1 57 3 113.5t5 113.5z" />
    <glyph glyph-name="G.ss01" horiz-adv-x="813" 
d="M794 210q-10 -22 -13 -40q-6 -27 -1.5 -54.5t9.5 -54.5q2 -11 -4 -18.5t-14 -9.5t-16.5 1.5t-10.5 14.5q-4 17 -7 34t-5 34q-41 -51 -88.5 -92t-98.5 -70q-1 0 -2 -1q-4 -2 -6 -4l-4 -2t-4 -1q-53 -26 -109 -39.5t-115 -18.5q-39 -4 -75.5 -1t-70.5 16q-9 -2 -15 2
q-50 23 -81 60t-46 82t-16 95t9.5 100t30 96t45.5 84q55 79 122.5 147.5t141.5 129.5t153 116.5t157 110.5q9 6 17.5 3t13 -10.5t3.5 -17t-10 -15.5q-68 -48 -137.5 -96.5t-135.5 -100.5t-127.5 -109.5t-113.5 -123.5q-25 -31 -46.5 -63.5t-38 -67t-26.5 -72t-11 -77.5
q-2 -55 12.5 -106t51.5 -87q1 0 1 -1q24 -21 51.5 -32t57 -15t59.5 -2.5t60 6.5q49 8 93 20t86 35q23 15 49.5 33.5t48.5 41t35 49t10 57.5q-3 30 -20 57t-42 47.5t-55.5 32t-61.5 11.5q-5 -1 -10 -1.5t-10 -1.5h-5q-11 -2 -18.5 3.5t-9.5 14t1.5 16.5t14.5 11q8 2 15.5 2.5
t15.5 1.5q87 11 172.5 20.5t170.5 26.5q7 1 12 0q8 -2 13.5 -7t4.5 -15q-3 -48 -18 -94t-39 -91zM600 338q39 -22 68 -55t37 -75q4 -24 3 -44q14 18 25.5 36t22.5 38q5 12 10.5 23.5t10.5 23.5q1 1 1.5 2t1.5 2q15 37 21 77q-51 -9 -100.5 -15.5t-100.5 -12.5z" />
    <glyph glyph-name="H.ss01" horiz-adv-x="382" 
d="M510 240q12 0 17.5 -7t5.5 -16t-6 -16.5t-17 -7.5q-54 -2 -108 -3.5t-108 -2.5q7 -66 9.5 -131.5t-2.5 -131.5q-1 -11 -8.5 -17t-16.5 -6t-16 5.5t-6 17.5q5 66 2.5 131t-8.5 131q-79 -1 -158 0q8 -89 11 -177t1 -177q0 -11 -7.5 -17t-16 -6t-15.5 6t-7 17
q2 89 -1.5 177.5t-11.5 177.5q-11 1 -22 1t-22 1t-17 8.5t-6 16.5t6 16t17 6q10 -1 19.5 -1t19.5 -1q-17 172 -50 340t-77 333q-3 11 2.5 18.5t14 10t17 -1t11.5 -14.5q45 -168 78.5 -340t51.5 -347q39 -1 78 -1h79q-2 10 -3 19.5t-2 18.5q-14 100 -35.5 198.5t-60.5 190.5
q-5 10 -1 19t11.5 13.5t16 3t13.5 -11.5q40 -94 63 -193t37 -200q2 -14 3.5 -28.5t3.5 -28.5q56 2 111 3.5t110 3.5z" />
    <glyph glyph-name="N.ss01" horiz-adv-x="613" 
d="M569 952q25 -111 35 -227t8.5 -233t-12.5 -233t-27 -228q-2 -10 -8 -14t-14 -3q-5 0 -7 1q-31 6 -55 30t-43 47q-33 41 -62 84.5t-56 88.5q-51 85 -98.5 171t-96.5 171q1 -98 -8.5 -194.5t-23.5 -193.5q-17 -120 -39.5 -238t-53.5 -235q-3 -11 -11.5 -14.5t-17 -1t-14 10
t-2.5 18.5q30 113 52.5 227.5t38.5 230.5q17 118 27 237.5t2 239.5v8q1 9 6.5 13.5t13.5 5.5q6 2 12.5 -0.5t11.5 -10.5q58 -97 111.5 -194.5t110.5 -194.5q28 -46 56.5 -91.5t60.5 -87.5q13 -17 29 -37.5t36 -34.5q33 228 30 459q-1 103 -7.5 206t-29.5 204q-2 11 4 18.5
t14 10t16.5 -1t10.5 -14.5z" />
    <glyph glyph-name="P.ss01" horiz-adv-x="446" 
d="M707 571q2 -6 -1 -13q-10 -24 -31 -42.5t-46.5 -33.5t-52.5 -26.5t-49 -21.5q-58 -26 -117 -49t-119 -43q-11 -3 -18 2t-9.5 13.5t1 17.5t14.5 12q54 19 107.5 39.5t106.5 43.5q27 12 53.5 24.5t52.5 27.5q7 4 16 9t18 11t16.5 13t11.5 15q1 29 -17 53t-45.5 42t-58 30.5
t-53.5 20.5q-58 19 -117.5 28.5t-119.5 11.5q-89 3 -178 -3q32 -286 22.5 -569.5t-40.5 -569.5q-1 -11 -9 -17t-17 -6t-15.5 6t-5.5 17q15 141 26.5 283t15 284.5t-1.5 284.5t-21 283q-75 -8 -147 -23.5t-142 -39.5q-11 -3 -18 2t-9 13.5t1 17.5t14 12q70 24 144 40.5
t151 25.5q-1 6 -1.5 11.5t-1.5 11.5q-2 11 4.5 18.5t15 9.5t16 -1.5t9.5 -14.5q1 -8 2 -15.5t2 -15.5q69 6 136.5 4.5t133.5 -9.5q67 -9 133 -25.5t125 -51.5q21 -12 41.5 -27t37 -33t26.5 -40t8 -48z" />
    <glyph glyph-name="S.ss01" horiz-adv-x="753" 
d="M758 178q10 5 19 1t13.5 -11.5t2.5 -16t-12 -13.5l-92 -44t-93 -44q20 -17 32.5 -38.5t13.5 -49.5q1 -3 0 -7q0 -4 -1 -6q-6 -35 -25 -62.5t-47 -48t-62 -36t-70 -26.5t-71 -20t-64 -16q-9 -3 -35.5 -10t-60 -15t-70.5 -13.5t-67 -5t-49.5 10t-18.5 32.5q-2 17 7 32.5
t22.5 28.5t29 23.5t27.5 18.5q50 32 102 59.5t106 53.5q51 26 102 50.5t103 50.5q-11 5 -20.5 9t-18.5 8q-41 18 -80 38.5t-75 46.5q-75 55 -97.5 135.5t0.5 168.5q14 54 38 104.5t56 97.5q28 42 59.5 86t69.5 79q15 14 32.5 27t36.5 23t40 14.5t43 1.5q42 -5 70 -31.5
t32 -69.5q1 -11 -5.5 -17t-15.5 -6t-16.5 6t-8.5 17q-2 20 -14.5 33t-29.5 18.5t-36 4t-34 -9.5q-39 -20 -71 -54q-32 -33 -59.5 -70.5t-52.5 -75.5q-23 -36 -46 -79t-38 -89.5t-17.5 -93.5t15.5 -90q15 -35 40 -61t56 -46.5t65.5 -37t66.5 -30.5q16 -7 33 -15t34 -18
q51 25 102.5 49.5t103.5 48.5zM47 -254v-2v2zM596 -45q1 23 -12.5 41t-33.5 32q-44 -21 -87 -42l-86 -42q-48 -24 -96 -48.5t-96 -50.5q-25 -13 -49 -27t-47 -31l-20 -16t-17 -18q-2 -2 -2.5 -4.5t-1.5 -4.5h1q6 0 12.5 -0.5t13.5 0.5q20 1 38.5 3.5t37.5 6.5q45 8 88 18.5
t87 22.5q32 9 76 20t85.5 29t72.5 45t36 66z" />
    <glyph glyph-name="b.alt01" horiz-adv-x="443" 
d="M433 218q0 -7 -1 -10q-4 -35 -16.5 -62t-32 -49.5t-44.5 -42.5t-52 -40q-67 -50 -142.5 -85t-153.5 -62q-11 -4 -18.5 1.5t-9.5 13.5t1 17t14 13q66 23 131 51.5t123 67.5q25 18 51.5 36.5t48.5 41t37 49t17 60.5q-4 34 -25.5 45.5t-49 8.5t-55 -16t-43.5 -27
q-37 -32 -66 -77.5t-33 -96.5q0 -2 -2 -8q1 -8 1 -16.5t1 -16.5q0 -11 -7 -17t-16 -6t-16.5 6t-7.5 17q-4 99 -10 191t-13.5 182t-16 181.5t-16.5 190.5q-1 11 6 16.5t16 5.5t16.5 -5.5t8.5 -16.5q6 -79 12.5 -150.5t13 -142t12 -142t10.5 -150.5q23 40 55.5 73t70.5 51
q29 13 61.5 17.5t61 -3t49.5 -28t27 -56.5q2 -3 2 -10z" />
    <glyph glyph-name="d.alt01" horiz-adv-x="459" 
d="M468 11q4 -11 -1.5 -18.5t-13.5 -9.5t-17 1.5t-13 14.5q-20 60 -33 122.5t-21 125.5q-64 20 -130.5 13t-120.5 -49q-19 -14 -35.5 -33t-25.5 -40.5t-9 -45t15 -45.5q36 -38 71.5 -38t67.5 22t57.5 56.5t42.5 64.5q5 10 14 11.5t16.5 -3t11 -13t-1.5 -18.5
q-15 -27 -35.5 -55.5t-45 -52t-52.5 -40t-58 -20t-61 9t-62 45.5l-3 3q0 1 -1 1q-20 29 -22.5 60t7 60t29 55t43.5 46q59 49 134 62t147 -6q-6 54 -9 108q-4 51 -6.5 94.5t-2.5 86t3.5 86.5t11.5 94q2 11 10 14.5t16.5 1t14.5 -10t4 -18.5q-8 -48 -11 -90.5t-3 -83.5
t2.5 -83t6.5 -91q8 -100 23 -199t46 -195z" />
    <glyph glyph-name="g.alt01" horiz-adv-x="283" 
d="M311 -581q3 -11 -2 -18t-13.5 -9.5t-17.5 1t-12 14.5q-31 100 -43.5 209.5t-16.5 214.5q-2 51 -3 102t-1 103q-15 -15 -33 -28.5t-37 -22.5t-38.5 -12t-38.5 4t-30 21t-17 32t-7.5 38t0.5 37q4 41 21 87.5t46 82t69 53t90 -0.5q10 -4 13.5 -13t1.5 -17t-9.5 -13.5
t-17.5 -1.5q-37 13 -66.5 -1t-50.5 -42t-33.5 -63.5t-15.5 -65.5q-1 -8 -2 -21.5t0.5 -27.5t6.5 -25.5t16 -14.5q18 -5 36.5 3t36.5 21.5t33 29.5t26 27q2 64 6 127q1 11 8.5 16.5t16.5 5.5t16 -5.5t6 -16.5q-7 -97 -6.5 -192.5t3.5 -192.5q4 -105 16 -214.5t43 -210.5z" />
    <glyph glyph-name="h.alt01" horiz-adv-x="415" 
d="M412 -175q4 -10 -0.5 -17t-13 -9.5t-18 1t-13.5 13.5q-12 28 -18 59t-8.5 63t-3 63.5t-1.5 61.5q-1 28 -0.5 66.5t-4.5 76t-20.5 68t-49.5 42.5h-2q-28 6 -43.5 -13.5t-23 -48t-10 -59t-3.5 -47.5q-1 -14 -1.5 -36t-4 -44t-12 -40.5t-25.5 -24.5q-11 -6 -22 1
q-20 13 -34 35.5t-23.5 48.5t-15.5 53t-11 48q-11 47 -16 93.5t-7 94.5q-2 57 -4 103t-2.5 90t0 90.5t2.5 103.5q0 11 7.5 16.5t16.5 5.5t16 -5.5t7 -16.5q-2 -54 -2.5 -96.5t0 -82.5t2 -82.5t3.5 -96.5q2 -43 4 -85.5t11 -84.5q6 -29 13 -58.5t17 -58.5q5 -12 10.5 -28
t13.5 -29q2 4 2 8q5 27 6 55q3 29 5.5 59.5t8.5 59.5q5 24 13.5 46.5t22.5 40t34 26.5t47 6q6 0 9 -1q37 -11 59 -36.5t33 -57.5t14 -68t4 -69q1 -36 1 -75t2 -78.5t8.5 -77.5t20.5 -72z" />
    <glyph glyph-name="m.alt01" horiz-adv-x="911" 
d="M933 23q6 -9 3 -17.5t-10.5 -13t-17 -3.5t-15.5 10q-29 42 -56 84.5t-57 83.5q-12 15 -29.5 38.5t-38.5 43.5t-45 32t-48 4q-21 -7 -38 -21t-31 -32t-26 -37.5t-24 -36.5q-6 -9 -14 -19.5t-17 -18.5t-19.5 -13t-23.5 -3q-1 1 -2.5 1t-3.5 1q-2 0 -4 1q-33 12 -57 35.5
t-45.5 50.5t-45 52t-54.5 39q-28 12 -45 1.5t-26 -34.5t-11.5 -57t-2 -65.5t2 -60t1.5 -40.5q-1 -14 -12 -20q-6 -5 -13.5 -5.5t-13.5 7.5q-4 3 -6 8q-34 45 -55 90t-32 101q-2 11 4 18.5t14 9.5t16.5 -1.5t10.5 -14.5q6 -30 14.5 -57t22.5 -53q-2 35 -1.5 71.5t9.5 67.5
t29 54t56 31q29 6 53 -3t44.5 -27t39 -41.5t37.5 -46t39 -41t44 -25.5q6 -2 19 15.5t28 39.5t28 42.5t18 25.5q13 15 29 28t34 21.5t38 10.5t40 -5q47 -18 84.5 -53.5t69 -78.5t58.5 -89t54 -85z" />
    <glyph glyph-name="n.alt01" horiz-adv-x="258" 
d="M283 27q6 -10 2 -18.5t-11.5 -13t-16.5 -3.5t-14 11q-38 66 -61 138.5t-25 147.5q-9 -20 -15 -40.5t-9 -31.5q-15 -49 -25 -99t-21 -101q-1 -11 -12 -15q-10 -7 -22 2q-23 16 -34.5 43t-15.5 58t-2.5 62t4.5 56q1 11 9 16.5t16.5 5.5t15 -5.5t5.5 -16.5q-3 -24 -3.5 -48
t2.5 -48q1 -8 1.5 -17t2.5 -19q10 49 22 97t31 95q4 12 10 25.5t14.5 26.5t19 22.5t24.5 12.5q5 1 12 -1q8 -1 13 -6.5t4 -15.5q-6 -85 15.5 -166t63.5 -154z" />
    <glyph glyph-name="o.alt01" horiz-adv-x="343" 
d="M302 235q22 -33 28 -67t-3 -65t-32.5 -56t-60.5 -39q-6 -2 -8 -2q-39 -14 -76 -6.5t-67 29.5t-49.5 56t-22.5 74q-3 44 15 80t49.5 56t71 21.5t78.5 -23.5q6 -4 7 -7q21 -8 40 -21t30 -30zM228 55q35 17 51.5 50.5t1.5 71.5q-8 18 -20 35t-31 26q-11 5 -20.5 8t-16.5 2
t-11 -7.5t-3 -20.5q1 -11 -6 -17t-16 -6t-16.5 6t-8.5 17q-1 17 2.5 29t8.5 21q-21 -1 -39 -11.5t-29.5 -28t-15.5 -40.5t2 -48q6 -24 21.5 -46t36.5 -35.5t46.5 -16.5t52.5 9q3 2 10 2z" />
    <glyph glyph-name="p.alt01" horiz-adv-x="270" 
d="M244 256q12 -30 14.5 -64t-3 -68.5t-18.5 -66.5t-32 -57q-30 -39 -63.5 -47.5t-65.5 9.5q2 -7 2.5 -13t2.5 -12q18 -85 38.5 -171t52.5 -167q4 -11 -1 -18.5t-13.5 -9.5t-17.5 1t-13 14q-33 85 -54.5 173.5t-38.5 176.5q-18 90 -29 184t-5 186q0 11 7.5 16.5t16.5 5.5
t16 -5.5t6 -16.5q0 -8 -0.5 -14.5t-0.5 -14.5q14 21 34.5 35.5t48.5 17.5q38 4 71 -17t45 -57zM67 34q22 -33 43.5 -36.5t39 13t31 47t21 64t8 65.5t-8.5 51v2q-2 2 -2 4q-7 20 -28 32t-41 7q-21 -5 -35 -19t-23.5 -32.5t-14.5 -39.5t-8 -40q2 -29 5 -57t8 -56z" />
    <glyph glyph-name="r.alt01" horiz-adv-x="1005" 
d="M983 330q11 0 16.5 -7.5t5.5 -16.5t-5.5 -16t-16.5 -6q-87 4 -160 5.5t-138.5 2t-127.5 -0.5t-127.5 -2t-138.5 -2.5t-160 -1.5q-8 -65 -12.5 -130t-7.5 -131q-2 -13 -9 -17q-14 -12 -28 -2q-6 4 -8 8q-19 22 -30.5 51t-18.5 60t-10 62.5t-5 58.5q-1 11 6 16.5t15.5 5.5
t16 -5.5t8.5 -16.5q2 -29 6 -65.5t15 -71.5q3 52 7.5 103.5t11.5 103.5q1 8 8 12.5t14 4.5q89 0 163.5 1t142 2.5t131.5 2.5t131.5 0.5t141.5 -2.5t163 -6z" />
    <glyph glyph-name="s.alt01" horiz-adv-x="332" 
d="M302 369q10 -4 13.5 -12.5t1 -17t-9.5 -13.5t-17 -1q-26 10 -64.5 11t-75.5 -8.5t-66 -30.5t-35 -55q-6 -28 8.5 -52t38 -43.5t50.5 -35.5t47 -28q21 -13 47 -30t48.5 -38t35 -46.5t6.5 -55.5t-25.5 -45.5t-44.5 -18.5t-51 4.5t-46 24.5q-8 7 -7.5 15t6.5 14t15.5 7.5
t17.5 -5.5q7 -6 19.5 -11t26 -6.5t25.5 2t17 16.5q6 13 3 25.5t-10.5 24t-17.5 21.5t-19 17q-20 17 -42 30t-44 27q-20 12 -41.5 26t-41 30t-35.5 34.5t-25 41.5q-15 39 -6.5 70.5t32 55t58 39t72 22.5t73.5 6t63 -11z" />
    <glyph glyph-name="t.alt01" horiz-adv-x="335" 
d="M1055 443q11 -2 16.5 -9.5t5.5 -16.5t-5.5 -15.5t-16.5 -5.5q-182 22 -364 25t-365 1q-52 -1 -103 -3.5t-102 -4.5q28 -115 54 -230t47 -231q2 -11 -4 -18.5t-14 -10t-16.5 1t-10.5 14.5q-20 108 -43.5 214t-49.5 213q-3 11 -5.5 22t-5.5 22q-34 -2 -67.5 -3.5
t-66.5 -2.5q-85 -4 -167.5 -7.5t-166.5 -11.5q-11 -1 -17 5.5t-6 15.5t6 17t17 9q84 8 166.5 11.5t167.5 6.5q31 2 61.5 3.5t61.5 3.5q-10 37 -19 73.5t-20 72.5q-3 11 -4.5 17.5t-3 12t-3.5 11.5t-6 17q-2 9 -4.5 17.5t-6.5 16.5q-1 4 -2 6.5t-3 5.5q-1 -6 -1.5 -12.5
t-0.5 -13.5q0 -11 -7.5 -17t-16.5 -6t-16 6t-7 17q1 10 2.5 24.5t5.5 28t12.5 22.5t22.5 9q13 0 22.5 -6.5t16 -15.5t11.5 -20t8 -21q10 -29 17.5 -53.5t14 -48.5t12.5 -48.5t13 -54.5q3 -10 5.5 -19t4.5 -19q54 3 108 5.5t109 2.5q183 2 365 -0.5t364 -24.5z" />
    <glyph glyph-name="u.alt01" horiz-adv-x="288" 
d="M255 335q2 -30 6 -60.5t6.5 -61t1.5 -61t-8 -60.5q-5 -21 -14.5 -44.5t-23.5 -43t-34 -32.5t-45 -13q-26 0 -47 10.5t-38 28t-29 39.5t-18 45q-16 57 -11.5 115t15.5 116q2 11 10.5 14.5t16.5 1.5t14 -9.5t4 -18.5q-9 -47 -15 -96.5t8 -96.5q4 -17 15.5 -40.5t28 -41
t36.5 -22.5t41 17q30 30 39.5 69t9 81t-6.5 84.5t-9 79.5q-1 11 6 16.5t16 5.5t16.5 -5.5t8.5 -16.5z" />
    <glyph glyph-name="w.alt01" horiz-adv-x="554" 
d="M507 298q4 11 13 14.5t17 1t13.5 -10t1.5 -17.5q-17 -48 -34 -94.5t-37 -92.5q-4 -10 -12.5 -31t-20 -40.5t-26.5 -32t-32 -5.5q0 1 -2 1q-12 3 -22 11.5t-18.5 19.5t-15 23t-11.5 21q-8 17 -15.5 34.5t-15.5 34.5q-8 -20 -16 -39.5t-17 -37.5q-6 -11 -13 -23t-16 -21.5
t-20.5 -14t-24.5 0.5q-17 3 -31 17.5t-25.5 33t-20 37t-13.5 30.5q-25 57 -47 114t-44 115q-4 10 1 17.5t13.5 9.5t17.5 -1.5t13 -13.5q2 -6 11.5 -32t23 -61.5t29.5 -75.5t31.5 -72.5t29 -53t22.5 -17.5h2l4 6q2 4 5 7.5t5 8.5l12 24t11 25q8 20 15.5 41t15.5 42
q-3 8 -6 16.5t-7 16.5q-4 10 1 17.5t13.5 9.5t17.5 -1t13 -13q2 -5 8.5 -22.5t15 -40.5t19 -48.5t21 -47t20 -36t17.5 -15.5q0 1 1 1q2 4 6 10q10 16 18 33q10 20 18.5 40.5t16.5 41.5q14 34 26 67.5t24 67.5z" />
    <glyph glyph-name="y.alt01" horiz-adv-x="295" 
d="M242 279q0 11 7.5 16.5t16.5 5.5t16 -5.5t6 -16.5q-8 -127 -21 -251.5t-18 -251.5q-4 -91 -11.5 -181t-14.5 -181q-1 -11 -8.5 -17t-16.5 -6t-16 6t-6 17q7 91 14.5 181t11.5 181q2 59 6.5 116t9.5 115q-36 -21 -68 -15.5t-57.5 29.5t-44.5 61t-30.5 78.5t-15 82
t1.5 72.5q2 11 10 14.5t16.5 1.5t14.5 -9.5t4 -18.5q-8 -47 2.5 -98.5t31.5 -93.5q9 -20 22.5 -40t33.5 -30q25 -11 46.5 0.5t38.5 28.5q5 53 9.5 104.5t8.5 104.5z" />
    <glyph glyph-name="z.alt01" horiz-adv-x="444" 
d="M424 142q6 -7 7 -16.5t-0.5 -20t-5 -20.5t-5.5 -17q-25 -84 -59 -164.5t-73 -158.5q-17 -33 -44.5 -82.5t-63 -99.5t-77 -93t-84.5 -61.5t-87 -4.5t-84 76q-6 9 -3 17.5t10.5 13t17 3t15.5 -10.5q27 -41 56.5 -51.5t60 1t61 40t59 67t54.5 82t47.5 84t37 74t23.5 51.5
q26 60 53 122t41 126q-24 -7 -48 -16.5t-47 -18.5q-15 -7 -34.5 -17t-39.5 -18.5t-40 -13.5t-38 -2q-8 2 -12.5 8.5t-4.5 13.5q0 13 6.5 26.5t16.5 25.5t21 23t19 20q24 27 49.5 56t43.5 61h-4q-14 -3 -27 -6t-26 -7q-43 -11 -84 -24.5t-83 -27.5q-11 -4 -18.5 1.5
t-9.5 13.5t1.5 17t14.5 13q49 17 99 33.5t101 27.5q9 2 20 5t22.5 4.5t22.5 0.5t19 -6q7 -5 10.5 -12t0.5 -15q-14 -38 -38 -70.5t-50 -62.5l-51 -57l72 30q12 5 33.5 16t45.5 19.5t46 11t34 -9.5z" />
    <glyph glyph-name="zero" unicode="0" horiz-adv-x="224" 
d="M139 358q27 -14 43 -38.5t23.5 -53.5t8 -60.5t-1.5 -58.5q-2 -26 -9.5 -58t-22.5 -55.5t-39 -31.5t-58 13q-23 14 -40 48.5t-25 77.5t-7 87t14 78t38.5 51t66.5 5q7 -2 9 -4zM88 76q16 -22 28.5 -25t21 5t14.5 25t9 35.5t4.5 36.5t1.5 28q0 16 -1.5 36.5t-6 40t-14 35.5
t-27.5 24q-2 0 -3 1q-22 5 -34 -8.5t-17.5 -37.5t-5 -54t5 -59t11 -51.5t13.5 -31.5z" />
    <glyph glyph-name="one" unicode="1" horiz-adv-x="231" 
d="M205 40q10 -4 13.5 -13t1.5 -17t-9.5 -13.5t-17.5 -1.5q-36 14 -72.5 10.5t-73.5 -10.5q-11 -2 -18.5 4t-9.5 14t1.5 16.5t14.5 10.5q14 3 29 5.5t30 4.5q-5 58 -11 116t-9 117q-6 -8 -12 -15.5t-12 -15.5t-16.5 -7t-16.5 7q-8 8 -7 16.5t7 16.5q15 20 29.5 39.5
t29.5 38.5q3 4 8 6q11 5 22.5 -0.5t11.5 -19.5q1 -75 9 -148.5t13 -148.5q17 -1 33 -3.5t32 -8.5z" />
    <glyph glyph-name="two" unicode="2" horiz-adv-x="401" 
d="M368 40q11 0 16.5 -7.5t5.5 -16t-5.5 -15.5t-16.5 -7q-42 2 -81.5 11.5t-79.5 20.5q-17 -12 -38.5 -21t-44.5 -12.5t-45.5 -2t-41.5 10.5q-7 3 -9 7q-19 18 -18 35t14.5 30t34 20t40.5 5q25 -3 48.5 -8.5t47.5 -11.5q13 12 28 27t27 32t20 35.5t8 38.5q0 29 -12.5 50.5
t-32.5 33.5t-44 15.5t-46 -3.5t-40.5 -24t-26.5 -44q-3 -11 -12 -14.5t-17.5 -1t-13.5 9.5t-2 18q11 37 34.5 61t52.5 35t61 10t61 -14t51 -38.5t31 -62.5q6 -24 1.5 -48.5t-15.5 -47.5t-27 -44t-34 -39q30 -8 59.5 -14.5t61.5 -8.5zM62 40q16 -7 36.5 -5t40.5 9
q-6 2 -12.5 3t-12.5 2q-5 1 -15.5 2t-20.5 0.5t-15.5 -3t-0.5 -8.5z" />
    <glyph glyph-name="three" unicode="3" horiz-adv-x="312" 
d="M250 178q12 -7 23 -17t18.5 -22.5t9.5 -26t-5 -28.5t-20 -27.5t-28.5 -22t-32.5 -16t-32 -10.5q-41 -10 -83 -8t-78 24q-10 6 -11 15.5t3.5 17t13 11t17.5 -2.5q21 -12 44.5 -16.5t47.5 -2t46.5 10.5t42.5 20q6 4 14 10t12.5 13t2 15t-17.5 16q-9 5 -18 9.5t-20 6.5
q-21 5 -41 5t-42 -4q-11 -4 -19 2.5t-10 15.5q-2 8 1 15.5t12 10.5l2 1q2 2 3 2q23 16 45 40.5t30 50.5q6 20 -6 28.5t-32 6.5q-23 -3 -43.5 -17.5t-27.5 -37.5q-3 -11 -12 -14t-17.5 -1t-13.5 9.5t-2 18.5q11 35 41 59t66 28q13 1 28 -0.5t29 -7t24.5 -15.5t13.5 -25
q6 -31 -9 -62.5t-39 -57.5q39 -3 70 -20z" />
    <glyph glyph-name="four" unicode="4" horiz-adv-x="293" 
d="M260 169q11 1 16.5 -5.5t5.5 -15t-5.5 -17t-16.5 -9.5h-6q2 -26 3 -50.5t3 -50.5q1 -11 -6 -17t-16 -6t-16.5 6t-8.5 17q-2 24 -3 48.5t-2 48.5q-44 -2 -87 -2t-86 -1q-18 0 -21 15q-4 5 -3.5 12t7.5 12q4 4 6 5q57 46 104 106.5t82 124.5q5 10 14 11t16.5 -3.5t11.5 -13
t-2 -18.5q-29 -54 -68 -106.5t-84 -97.5h54t54 2q-1 21 -1 41.5t-1 40.5q0 11 7.5 16.5t16 5.5t16 -5.5t7.5 -16.5q0 -20 0.5 -39t1.5 -39q2 0 3.5 0.5t3.5 0.5z" />
    <glyph glyph-name="five" unicode="5" horiz-adv-x="338" 
d="M326 172q6 -42 -15 -80t-56 -60q-51 -32 -107 -32t-110 19q-11 3 -14 12t-1 17.5t9.5 13.5t18.5 2q41 -14 87 -17.5t85 20.5q23 15 41.5 39t16.5 53q-1 24 -15 38t-34.5 19t-46 3t-50 -9t-45.5 -18t-34 -23q-2 -1 -2.5 -2t-2.5 -2q0 -2 -2 -2q-7 -9 -16 -8t-15 7
t-7.5 15.5t5.5 18.5q2 2 2.5 3t2.5 2q27 39 51.5 79t49.5 80q2 3 6 7q8 8 17 8h64.5t64.5 -1q12 0 17.5 -7.5t5.5 -16.5t-5.5 -16t-17.5 -7q-29 1 -58.5 1h-58.5q-11 -19 -22.5 -37.5t-23.5 -37.5q33 10 69 12.5t67 -6.5t52.5 -30t26.5 -57z" />
    <glyph glyph-name="six" unicode="6" horiz-adv-x="278" 
d="M242 179q24 -17 25.5 -43.5t-10.5 -53t-32.5 -48t-40.5 -28.5q-17 -6 -36.5 -8.5t-39 0.5t-37 11.5t-29.5 24.5q-24 32 -29.5 67t2.5 73q5 29 19 62.5t34 63t46.5 52t57.5 30.5q11 3 18.5 -2.5t9.5 -14t-1.5 -17t-14.5 -11.5q-17 -4 -32.5 -16t-28.5 -28t-24 -33t-18 -32
q-8 -16 -15.5 -39t-9.5 -46.5t3 -45.5t21 -35q8 27 23 57t36 50.5t47 26t56 -16.5zM122 45q18 -2 35.5 3t31 15.5t22 26t8.5 35.5q0 15 -8 18.5t-18 1.5t-20 -9t-16 -13q-27 -35 -35 -78z" />
    <glyph glyph-name="seven" unicode="7" horiz-adv-x="286" 
d="M248 346q12 1 22 -10t3 -25q-38 -78 -73.5 -156t-64.5 -159q-4 -11 -13 -14t-17 -1t-13.5 9t-1.5 18q27 76 59 148.5t67 144.5q-46 2 -91 2t-92 -4q-11 -1 -16.5 6t-5.5 16t5.5 16.5t16.5 8.5q54 5 107.5 4.5t107.5 -4.5z" />
    <glyph glyph-name="eight" unicode="8" horiz-adv-x="264" 
d="M187 188q16 -16 30 -34.5t23.5 -39t12.5 -41.5t-4 -42q-10 -32 -37 -45t-59.5 -12t-63.5 12.5t-49 29.5q-24 24 -28 50.5t5.5 52t28 49t39.5 41.5q-16 13 -30 28t-19 34q-8 37 10.5 56t48.5 25t62.5 0t53.5 -19q23 -15 27 -33.5t-2.5 -38t-21 -38.5t-27.5 -35zM147 309
q-12 2 -27 0t-24.5 -8t-10.5 -16.5t14 -24.5q12 -12 25 -22t27 -20q12 13 23 27.5t14 27t-5.5 22.5t-35.5 14zM96 31q18 -8 41.5 -9.5t41.5 5.5t25.5 22.5t-5.5 41.5q-28 52 -75 89q-17 -14 -34.5 -34t-26 -41t-3 -41t35.5 -33z" />
    <glyph glyph-name="nine" unicode="9" horiz-adv-x="237" 
d="M180 300q27 -45 39 -94t5 -95t-36 -84.5t-84 -63.5q-10 -5 -19 -1t-13.5 11.5t-3 16t11.5 13.5q22 10 41 23.5t33.5 31t22.5 38.5t7 47q-1 37 -14 71q-5 -9 -11 -16.5t-14 -14.5q-21 -18 -48 -23.5t-51 12.5q-33 25 -34.5 58.5t16.5 61.5t50.5 44t67.5 6q10 -3 13 -10
q1 0 1 -1q4 -5 7.5 -10t6.5 -10q5 -5 6 -11zM122 226q20 25 14 57q-2 4 -4.5 7.5t-5.5 7.5q-17 2 -34.5 -7t-26.5 -23q-8 -14 -6.5 -33t18.5 -28q13 -6 25 2t20 17z" />
    <glyph glyph-name="at" unicode="@" horiz-adv-x="384" 
d="M233 195q-11 13 -23.5 11.5t-24.5 -10t-22 -21t-14 -22.5q-2 -5 -2.5 -12.5t1.5 -13.5t6.5 -9.5t12.5 -0.5q14 4 22 15t13 23q2 12 11 16t19 2q8 -2 13 -8.5t3 -15.5q1 -10 8 -17.5t16 -10.5t18 -1.5t16 9.5q20 23 20 50q2 28 -10 55t-37 41q-24 15 -51.5 19.5
t-54.5 -0.5t-51 -20t-40 -39q-16 -25 -22.5 -52.5t-3 -55t17.5 -52.5t38 -44q25 -19 53.5 -24.5t57 -0.5t54.5 20t46 37q8 9 17 8t15.5 -7t7.5 -15.5t-6 -18.5q-32 -35 -75.5 -53.5t-88.5 -18.5t-85.5 20t-67.5 64q-24 39 -28.5 85.5t9 89t45 75t79.5 44.5q42 10 84.5 3.5
t76 -28.5t52.5 -58.5t14 -84.5q-4 -34 -25.5 -63t-59.5 -30q-43 -2 -66 23q-11 -13 -25.5 -21.5t-31.5 -7.5q-13 1 -25.5 6.5t-22 14.5t-15 21.5t-3.5 27.5q3 25 21 52.5t43 45t53 18.5t51 -27q7 -9 5.5 -18.5t-7.5 -15.5t-15 -7t-16 8z" />
    <glyph glyph-name="exclam" unicode="!" horiz-adv-x="110" 
d="M70 36q2 -11 -4 -18.5t-14.5 -10t-16.5 1t-10 14.5q-14 90 -14 179t2 180q0 11 7.5 16.5t16 5.5t15.5 -5.5t7 -16.5q-2 -88 -2.5 -174t13.5 -172zM73 -34q14 -14 20.5 -31.5t6.5 -36.5q-1 -9 -7.5 -17t-16.5 -6q-22 2 -33.5 19.5t-16.5 37.5q-2 7 -3 14.5t1 15.5
q3 9 9 13t13.5 4t14.5 -3.5t12 -9.5z" />
    <glyph glyph-name="numbersign" unicode="#" horiz-adv-x="412" 
d="M379 227q11 -1 16.5 -8.5t5.5 -16t-5.5 -15.5t-16.5 -6q-53 3 -104 3q-3 -12 -6 -23.5t-6 -22.5q18 -2 36 -3t36 -3q11 -1 16.5 -8.5t5.5 -16.5t-5.5 -15.5t-16.5 -5.5q-21 2 -42 3t-43 3q-6 -26 -12.5 -52t-11.5 -52q-2 -11 -10.5 -14.5t-16.5 -1t-14 10t-4 18.5
q5 23 10.5 46t10.5 46q-10 0 -20 -0.5t-21 -0.5l-12 -50t-11 -50q-2 -11 -10.5 -14.5t-16.5 -1.5t-14 9.5t-4 18.5q5 21 9.5 42t9.5 42q-11 -2 -21 -3t-21 -3t-18.5 4t-10 14.5t1 16.5t14.5 10q33 6 66 9q3 11 5.5 21t5.5 21q-26 -2 -50.5 -4t-50.5 -4q-11 -1 -17 5.5t-6 15
t6 16.5t17 9q29 3 56.5 5.5t56.5 4.5q7 29 14 59t13 59q2 11 10.5 14.5t16.5 1.5t14 -9.5t4 -18.5q-5 -26 -11 -52l-12 -52q11 1 22 1.5t22 0.5q7 28 14 55.5t12 55.5q2 11 10.5 14.5t16.5 1.5t14 -9.5t4 -18.5q-5 -25 -10.5 -49.5t-12.5 -49.5q45 0 92 -3zM215 139
q2 11 5 22l6 22q-11 -1 -21.5 -1t-21.5 -1q-3 -11 -5.5 -21.5t-5.5 -21.5q11 1 21.5 1h21.5z" />
    <glyph glyph-name="dollar" unicode="$" horiz-adv-x="332" 
d="M320 69q-3 -26 -28 -43t-53 -28q0 -14 0.5 -27t0.5 -27q0 -11 -7 -17t-16 -6t-16.5 6t-7.5 17v21.5t-1 21.5h-3q-3 -1 -8 -1q0 -12 0.5 -23.5t0.5 -22.5t-7 -17t-16 -6t-16.5 6t-7.5 17t-0.5 22t-0.5 22q-37 2 -71 15t-50 48q-5 10 -1 19t11.5 13.5t16 2.5t13.5 -12
q10 -22 32.5 -30t46.5 -10q-1 29 -2 58.5t-2 59.5q-8 4 -16 9l-16 10q-15 11 -25 26.5t-13 33t1.5 34.5t19.5 32q9 8 19.5 16t22.5 15q-1 14 -1.5 28.5t-0.5 28.5q0 12 7 17.5t16 5.5t16.5 -6t7.5 -17v-18.5t1 -18.5q3 1 5.5 1.5t5.5 1.5v19.5t-1 19.5q0 11 7 16.5t16 5.5
t16.5 -5.5t7.5 -16.5v-15.5t1 -15.5q19 0 37 -3q25 -5 35.5 -18t11 -29t-7 -34t-19.5 -33q-7 -9 -16.5 -10t-17 3.5t-10.5 13t4 17.5q1 1 7 8.5t9.5 16t2 14.5t-16.5 6h-9t-9 -1q2 -38 3 -76t3 -76q29 -11 53 -27.5t35 -41.5q3 -10 0 -16zM168 294q2 -29 2.5 -58.5
t2.5 -58.5l6 -2l6 -2q-2 31 -3 62l-2 62zM123 269q-19 -17 -16 -33.5t18 -30.5q-1 17 -1.5 32.5t-0.5 31.5zM179 32q2 1 5 1t7 1q-2 22 -2.5 43.5t-1.5 43.5q-1 0 -2 1q-2 1 -5 1.5t-5 2.5q2 -24 2.5 -47.5t1.5 -46.5zM237 47q14 5 24.5 12.5t12.5 15.5q-5 8 -15.5 14.5
t-23.5 12.5q0 -14 0.5 -27.5t1.5 -27.5z" />
    <glyph glyph-name="percent" unicode="%" horiz-adv-x="276" 
d="M223 416q5 10 14 11.5t16.5 -3t11 -13.5t-1.5 -19q-36 -70 -70 -140.5t-66 -142.5q12 11 24 21.5t24 21.5q6 6 16 6q13 3 29 -4q26 -13 32 -45q3 -13 4 -28.5t-1.5 -31t-10 -28t-22.5 -19.5t-29.5 -5.5t-26.5 9t-20 20t-9 28.5q-17 -17 -33 -33.5t-31 -33.5
q-5 -11 -10 -22.5t-10 -22.5q-5 -10 -13.5 -11.5t-16 3t-11.5 13.5t1 19q51 115 102 227t108 223zM193 44q6 -3 9 0t5 9t2 12.5v9.5q0 13 -3 27q-1 1 -1.5 4t-2.5 4q-3 -4 -8.5 -13.5t-8.5 -19.5t-2 -19.5t10 -13.5zM86 235q-21 2 -32.5 13t-15 27.5t0.5 34.5t13.5 33.5
t24.5 25.5t34 9q2 1 3.5 0.5t3.5 -0.5q1 0 2 -1q6 0 11 -5q12 -8 18 -21t6 -28.5t-5 -31.5t-14.5 -29t-22 -20.5t-27.5 -6.5zM85 306q-1 -4 -2 -9.5t1 -9.5q1 -3 3 -4t1 -2q6 2 11 11t7 17q1 5 2 10.5t-1 8.5q0 1 -0.5 1.5t-0.5 1.5v1q-7 0 -13 -10.5t-8 -15.5z" />
    <glyph glyph-name="asciicircum" unicode="^" horiz-adv-x="175" 
d="M162 333q4 -10 0 -19t-11.5 -13.5t-16 -3t-13.5 11.5q-9 21 -19 42t-21 41q-7 -18 -12.5 -37t-11.5 -37q-3 -11 -12 -14.5t-17.5 -1.5t-13.5 9.5t-2 18.5q11 32 21 65t26 63q8 13 20 11q14 2 21 -11q17 -31 32.5 -62t29.5 -63z" />
    <glyph glyph-name="asterisk" unicode="*" horiz-adv-x="185" 
d="M157 392q9 0 13 -5t4 -12t-4 -12.5t-13 -5.5h-21q4 -4 8 -7.5t8 -7.5q6 -6 5 -12.5t-5.5 -11t-11.5 -6t-13 4.5q-3 3 -6.5 6t-6.5 6v-20q0 -8 -5.5 -12.5t-12 -4.5t-12 4.5t-5.5 12.5v19q-4 -5 -7.5 -9.5t-8.5 -9.5q-5 -6 -11.5 -5.5t-11 5t-6 12t4.5 13.5q7 10 17 20
h-28q-9 0 -13 5t-4 11.5t4 12.5t13 6h23q-5 5 -9.5 9t-9.5 8q-6 6 -5 13t5.5 11.5t11.5 5.5t13 -5q5 -5 9.5 -9t9.5 -9v14.5t-1 14.5q0 8 5 12t11.5 4t12.5 -4t6 -12q1 -6 1 -12v-11q5 5 8.5 9t7.5 9q6 6 13 5.5t11.5 -5t5.5 -12t-5 -13.5q-5 -5 -9 -10t-9 -10h23v0z" />
    <glyph glyph-name="parenleft" unicode="(" horiz-adv-x="183" 
d="M118 397q9 7 17 4t12.5 -11t4 -17.5t-9.5 -16.5q-45 -34 -66.5 -86t-19 -107t28.5 -104.5t76 -78.5q10 -6 11 -15.5t-3 -17t-12.5 -11t-18.5 2.5q-41 24 -69 59.5t-42.5 77.5t-16 86.5t10 87.5t36 81t61.5 66z" />
    <glyph glyph-name="parenright" unicode=")" horiz-adv-x="184" 
d="M42 348q-9 7 -10 16.5t3.5 17.5t12.5 11t17 -4q37 -28 61.5 -66t36 -81t10 -87.5t-16 -86.5t-42 -77.5t-68.5 -59.5q-10 -6 -18.5 -2.5t-13 11t-3.5 17t11 15.5q49 29 75.5 78.5t29.5 104.5t-18.5 107t-66.5 86z" />
    <glyph glyph-name="underscore" unicode="_" horiz-adv-x="452" 
d="M33 2q-11 0 -17 7.5t-6 16t6 16t17 7.5q97 -1 193 -1h193q11 0 16.5 -7t5.5 -15.5t-5.5 -16t-16.5 -7.5q-97 -1 -193 -0.5t-193 0.5z" />
    <glyph glyph-name="plus" unicode="+" horiz-adv-x="419" 
d="M386 213q11 0 16.5 -7.5t5.5 -16t-5.5 -16t-16.5 -7.5h-157q2 -36 3 -72t3 -71q1 -12 -6 -17.5t-16 -5.5t-16.5 6t-7.5 17q-4 70 -6 143h-75t-75 -1q-11 0 -17 7t-6 16t6 16.5t17 7.5q37 1 74 1h74q-2 43 -2.5 85.5t-1.5 85.5q0 11 7 16.5t15.5 5.5t16 -5.5t7.5 -16.5
q1 -43 2 -85.5t3 -85.5h158v0z" />
    <glyph glyph-name="hyphen" unicode="-" horiz-adv-x="419" 
d="M33 163q-11 0 -17 7t-6 16t6 16.5t17 7.5q89 1 177 0.5t176 0.5q11 0 16.5 -7.5t5.5 -16t-5.5 -16t-16.5 -7.5q-88 0 -176 0.5t-177 -1.5z" />
    <glyph glyph-name="equal" unicode="=" horiz-adv-x="447" 
d="M33 210q-11 1 -17 9t-6 16.5t6 15.5t17 6q94 -10 188 -11t189 6q11 1 16.5 -6t5.5 -16t-5.5 -16.5t-16.5 -8.5q-95 -7 -189 -5.5t-188 10.5zM407 116q11 1 18.5 -5t9.5 -14.5t-1.5 -16.5t-14.5 -9q-94 -13 -190.5 -13t-191.5 5q-11 0 -17 7.5t-6 16.5t6 16t17 7
q91 -5 185 -6t185 12z" />
    <glyph glyph-name="ampersand" unicode="&#x26;" horiz-adv-x="429" 
d="M408 -16q9 -6 10.5 -15t-3 -16.5t-13 -11t-18.5 2.5q-17 10 -32 21.5t-30 24.5q-23 -23 -49 -41t-56 -31q-19 -8 -42 -10.5t-45.5 1t-43 13.5t-34.5 27q-24 30 -34 63t-7 66.5t18 65.5t40 60q15 17 32 32q-4 5 -7 10.5t-6 10.5q-23 42 -27.5 86.5t25.5 85.5
q13 17 32 28.5t40 16t42.5 1t38.5 -18.5q19 -16 27 -39t7 -48t-10.5 -48.5t-26.5 -39.5q-16 -15 -34 -28t-36 -27q23 -31 49.5 -60.5t52.5 -57.5q13 -14 25.5 -27t26.5 -27q8 10 15 19l14 18q6 9 16 10t17.5 -3.5t10.5 -12.5t-4 -17q-16 -22 -35 -44q24 -21 54 -40zM128 280
q2 -3 4.5 -6.5t4.5 -7.5q7 5 13.5 10t13.5 10q17 11 34.5 24.5t22.5 33.5q5 15 6 37.5t-13 34.5t-29 13.5t-29 -4.5t-25.5 -17t-18.5 -25q-11 -25 -4.5 -52.5t20.5 -50.5zM129 -43q46 -9 86 11t73 52l-31.5 31.5t-29.5 31.5q-25 27 -50.5 55.5t-48.5 58.5q-23 -20 -41 -43
t-26 -55q-5 -20 -4 -43t9 -43.5t23.5 -36t39.5 -19.5z" />
    <glyph glyph-name="slash" unicode="/" horiz-adv-x="354" 
d="M54 -64q-6 -10 -15 -11t-16.5 3t-11 12.5t2.5 18.5q71 121 142.5 240.5t142.5 240.5q6 10 15.5 11t17 -3.5t11 -13t-2.5 -18.5q-72 -121 -143.5 -240t-142.5 -240z" />
    <glyph glyph-name="backslash" unicode="\" horiz-adv-x="354" 
d="M340 -78q6 -10 2.5 -18.5t-11 -12.5t-16.5 -3t-15 11q-71 121 -142.5 240t-143.5 240q-6 10 -2.5 18.5t11 13t17 3.5t15.5 -11q71 -121 142.5 -240.5t142.5 -240.5z" />
    <glyph glyph-name="braceleft" unicode="{" horiz-adv-x="174" 
d="M141 -55q11 1 16.5 -6t5.5 -15.5t-5.5 -16t-16.5 -8.5q-22 -2 -34 5t-18 19.5t-8 29t-3 34.5q-1 12 -1 36t-3.5 48.5t-12.5 43.5t-27 22q-11 0 -19 11t-3 22q1 8 9 13q15 18 20.5 36.5t6.5 38t0.5 40t3.5 41.5q6 31 24 49.5t50 20.5q11 0 16.5 -7t5.5 -15.5t-5.5 -16
t-16.5 -8.5q-16 -1 -22.5 -12t-8 -26.5t0 -32t1.5 -26.5q0 -55 -26 -94q17 -11 27 -29t15 -40q4 -17 5.5 -33.5t2.5 -33.5q1 -8 0.5 -23t1 -30t5.5 -26t13 -11z" />
    <glyph glyph-name="braceright" unicode="}" horiz-adv-x="174" 
d="M162 188q5 -11 -3 -22t-19 -11q-18 -3 -27.5 -24.5t-13 -49t-4 -54t-0.5 -38.5q-1 -33 -13 -54t-49 -18q-11 1 -17 8.5t-6 16t6 15.5t17 6q9 0 13.5 12t5.5 28.5t1 32.5v24q1 15 2.5 30.5t5.5 29.5q6 22 16 40t26 29q-14 20 -21 44t-5 50q0 10 1.5 26.5t0 32t-8.5 26.5
t-22 12q-11 1 -17 8.5t-6 16t6 15.5t17 7q32 -2 50 -20.5t24 -49.5q4 -21 3.5 -41.5t0.5 -40t6.5 -38t20.5 -36.5q7 -4 9 -13z" />
    <glyph glyph-name="greater" unicode="&#x3e;" horiz-adv-x="178" 
d="M167 144q2 -11 -9 -19q-3 -3 -4 -3q-27 -18 -53.5 -35.5t-53.5 -35.5q-9 -6 -17.5 -3t-13 10.5t-3 17.5t10.5 16l78 51q-20 13 -40 25.5t-40 24.5q-10 6 -11 15t3.5 16.5t13 11t18.5 -2.5q27 -17 54 -33.5t54 -33.5q2 -1 4 -3q10 -9 9 -19z" />
    <glyph glyph-name="less" unicode="&#x3c;" horiz-adv-x="178" 
d="M11 138q-2 11 9 19q3 3 4 3q27 18 53.5 35.5t53.5 35.5q9 6 17.5 3t13 -10.5t3 -17.5t-10.5 -16l-78 -51q20 -13 40 -25.5t40 -24.5q10 -6 11 -15.5t-3.5 -17t-13 -10.5t-18.5 3q-27 17 -54 33.5t-54 33.5q-2 1 -4 3q-10 9 -9 19z" />
    <glyph glyph-name="question" unicode="?" horiz-adv-x="246" 
d="M188 359q18 -12 29.5 -28t16 -34t1 -37t-16.5 -37q-17 -23 -36 -45t-30 -48q-11 -23 -7.5 -51.5t12.5 -51.5q4 -11 -1 -18t-13.5 -9t-17.5 1t-13 14q-12 31 -13 59t7 53.5t22.5 50t34.5 49.5q6 7 12.5 16.5t10.5 19.5t3.5 20t-7.5 20q-8 11 -20 17.5t-26 9.5
q-12 2 -30 -3t-31.5 -15t-19 -23.5t7.5 -28.5q7 -9 5.5 -18.5t-7.5 -16t-15 -7.5t-16 8q-13 16 -17 33.5t-0.5 35t14 33t26.5 27.5q30 21 66.5 23t68.5 -19zM148 -23q10 -2 17.5 -8.5t11 -15.5t2.5 -19t-6 -18q-4 -7 -11.5 -10t-15.5 -1q-16 6 -23 19.5t-5 30.5v1
q0 2 0.5 2.5t0.5 2.5q3 9 8 12q7 5 15 5q3 0 5 -1h1zM165 -55q1 0 1 -1q0 1 -1 2v-1zM165 -55q2 -2 1.5 -1.5l-1.5 1.5v0z" />
    <glyph glyph-name="period" unicode="." horiz-adv-x="93" 
d="M52 83q15 -3 23 -15.5t8 -26.5q0 -12 -6.5 -25.5t-20.5 -15.5q-19 -3 -34 9q-5 5 -8.5 13t-2.5 16q1 11 6 23.5t16 18.5q8 6 19 3z" />
    <glyph glyph-name="comma" unicode="," horiz-adv-x="106" 
d="M81 65q12 -18 13.5 -35t-3.5 -33.5t-14.5 -33t-18.5 -31.5q-6 -10 -15.5 -11t-17 3.5t-11 13t2.5 17.5q7 11 15 23t13 25q-12 0 -22 9q-14 12 -12 29q2 11 6.5 23.5t15.5 18.5q9 6 20 3q14 -3 22 -16q2 -1 6 -5z" />
    <glyph glyph-name="semicolon" unicode=";" horiz-adv-x="106" 
d="M54 246q15 -3 23 -15.5t8 -26.5q0 -12 -6.5 -25.5t-20.5 -15.5q-19 -3 -34 9q-5 5 -8.5 13t-2.5 16q1 11 6 23.5t16 18.5q8 6 19 3zM81 65q12 -18 13.5 -35t-3.5 -33.5t-14.5 -33t-18.5 -31.5q-6 -10 -15.5 -11t-17 3.5t-11 13t2.5 17.5q7 11 15 23t13 25q-12 0 -22 9
q-14 12 -12 29q2 11 6.5 23.5t15.5 18.5q9 6 20 3q14 -3 22 -16q2 -1 6 -5z" />
    <glyph glyph-name="colon" unicode=":" horiz-adv-x="93" 
d="M52 246q15 -3 23 -15.5t8 -26.5q0 -12 -6.5 -25.5t-20.5 -15.5q-19 -3 -34 9q-5 5 -8.5 13t-2.5 16q1 11 6 23.5t16 18.5q8 6 19 3zM52 83q15 -3 23 -15.5t8 -26.5q0 -12 -6.5 -25.5t-20.5 -15.5q-19 -3 -34 9q-5 5 -8.5 13t-2.5 16q1 11 6 23.5t16 18.5q8 6 19 3z" />
    <glyph glyph-name="quotesingle" unicode="'" horiz-adv-x="116" 
d="M41 452q33 4 48.5 -16.5t16 -48.5t-11.5 -56t-33 -40q-10 -6 -18.5 -2.5t-12.5 11t-3 16.5t11 15q7 4 13 16t8 25q-14 -4 -27 3t-18 22q-3 8 -3 20.5t5 20.5q4 9 15 12q6 2 10 2z" />
    <glyph glyph-name="quotedbl" unicode="&#x22;" horiz-adv-x="229" 
d="M41 455q33 4 48 -16.5t16 -48.5t-11 -56t-33 -40q-10 -6 -18.5 -2.5t-13 11t-3.5 16.5t11 15q7 4 13.5 16t8.5 25q-15 -4 -27.5 3t-18.5 22q-2 8 -2.5 20.5t4.5 20.5q4 9 15 12q6 2 10 2h1zM154 455q33 4 48.5 -16.5t16 -48.5t-11.5 -56t-33 -40q-10 -6 -18.5 -2.5
t-12.5 11t-3 16.5t11 15q7 4 13 16t8 25q-14 -4 -26.5 3t-18.5 22q-3 8 -3 20.5t5 20.5q4 9 15 12q6 2 10 2z" />
    <glyph glyph-name="bracketleft" unicode="[" horiz-adv-x="162" 
d="M129 -36q11 0 16.5 -7.5t5.5 -16.5t-6 -16t-17 -7q-14 1 -36.5 0t-57.5 0q-14 0 -19 10t-2 20q0 48 -0.5 103t-1 111t-1 110.5t-0.5 101.5q0 12 7.5 17.5t16.5 5.5h1h21.5h26h26h20.5q11 0 16.5 -7.5t5.5 -16.5t-6 -16t-17 -7q-11 1 -28.5 0t-42.5 0q0 -44 0.5 -93.5
t1 -99.5t1 -99t0.5 -93q18 0 37.5 0.5t31.5 -0.5z" />
    <glyph glyph-name="bracketright" unicode="]" horiz-adv-x="162" 
d="M33 348q-11 0 -16.5 7.5t-5.5 16.5t6 16t17 7q14 -1 36.5 0t57.5 0q14 0 19 -10t2 -20q0 -48 0.5 -103t1 -111t1 -110.5t0.5 -101.5q0 -12 -7.5 -17.5t-16.5 -5.5h-1h-21.5h-26h-26h-20.5q-11 0 -16.5 7.5t-5.5 16.5t6 16t17 7q11 -1 28.5 0t42.5 0q0 44 -0.5 93.5
t-1 99.5t-1 99t-0.5 93q-18 0 -37.5 -0.5t-31.5 0.5z" />
    <glyph glyph-name="d" unicode="d" horiz-adv-x="545" 
d="M571 99q6 -9 2.5 -17.5t-11 -13t-16.5 -3.5t-15 11q-52 83 -88.5 166.5t-59.5 175.5q-6 -60 -18 -120q-7 -32 -21 -72t-34.5 -79t-47.5 -73t-59.5 -53.5t-71 -21.5t-81.5 23q-6 3 -9 9q-23 19 -32.5 44t-8 51.5t12.5 53t31 49.5q25 30 57.5 52.5t69 36.5t76 19t78.5 0
q2 12 3.5 24.5t3.5 25.5q8 72 9 144t-1 144q0 20 -0.5 30.5t-1 18t-1 14t-1.5 18.5q-1 10 5 15.5t14 7t16 -2t11 -10.5q3 -6 3 -13q0 -20 0.5 -27t1 -12t1 -12.5t0.5 -27.5q4 -42 9.5 -82.5t12.5 -80.5q20 -114 60 -214t101 -198zM87 56q29 -12 57 -5t53 25t44.5 43.5
t32.5 50.5q28 56 42 121q-60 8 -121 -12t-102 -65q-16 -17 -28.5 -38t-16.5 -42.5t3.5 -41.5t33.5 -35q1 0 1 -0.5t1 -0.5z" />
    <glyph glyph-name="a" unicode="a" horiz-adv-x="409" 
d="M427 91q10 -5 11 -14t-3.5 -16.5t-13 -11.5t-18.5 2q-31 18 -50.5 44.5t-31 58t-17 66.5t-7.5 69q-14 -22 -25 -46t-22 -46q-14 -29 -29 -59t-31 -59q-14 -26 -31.5 -49t-47.5 -29q-26 -5 -48.5 5t-37.5 30q-2 2 -6 8q-3 4 -3 9q-18 45 -15 88.5t21.5 81.5t50 69t71 50.5
t84 27t88.5 -1.5q8 1 15 -4q8 -4 10 -15q1 -2 1 -5q1 -32 2.5 -68.5t9.5 -71.5t24.5 -65t48.5 -48zM199 199q16 32 31.5 65t37.5 62q-48 0 -95 -21.5t-79.5 -57.5t-44.5 -82.5t11 -96.5q13 -20 27 -21t28 10.5t27 31.5t24.5 41t19.5 40t13 29z" />
    <glyph glyph-name="b" unicode="b" horiz-adv-x="484" 
d="M473 165q0 -33 -14 -57.5t-36.5 -42t-51 -29t-56.5 -17.5q-74 -17 -151 -16t-150 22q-11 3 -13 11.5t1.5 16.5t11.5 13t19 2q59 -17 122 -19t123 9q18 3 44 10t50 19t40.5 29.5t14.5 43.5q-4 43 -24 57.5t-49 10.5t-63 -22.5t-65.5 -42t-56.5 -47.5t-36 -39
q-8 -11 -17.5 -10t-16.5 9q-9 5 -10 15q-22 93 -30 189t-15 191q-3 47 -4.5 82.5t-2.5 69t-2 69.5t-3 85q0 12 7 16.5t15.5 3t16 -8t7.5 -17.5q1 -48 2 -84t2.5 -70t3.5 -69.5t5 -82.5q6 -81 13 -162.5t22 -161.5q37 41 85 74.5t97 49.5q28 9 57.5 8t53.5 -13t39 -35.5
t15 -59.5z" />
    <glyph glyph-name="c" unicode="c" horiz-adv-x="380" 
d="M375 122q10 5 18.5 1.5t13 -11t3 -16.5t-11.5 -15q-22 -11 -56.5 -26.5t-75.5 -28.5t-83.5 -20t-78.5 -2t-62.5 25t-35.5 61q-7 30 -4.5 65.5t13.5 69t30.5 62.5t47.5 46q33 20 66.5 22.5t63.5 -8.5t55.5 -34.5t41.5 -56.5q5 -10 1 -19t-11.5 -13.5t-16 -3t-13.5 11.5
q-16 32 -42.5 51.5t-55.5 23.5t-57 -10t-47 -48q-9 -16 -18 -40t-13 -49.5t0 -49t21 -38.5q14 -13 32.5 -17.5t38.5 -4t39.5 4t36.5 7.5q42 11 81.5 25t78.5 35z" />
    </font>
</defs>
</svg>
